<svg width="24" height="24" viewBox="0 0 24 24" fill="none" xmlns="http://www.w3.org/2000/svg">
<g clip-path="url(#clip0_19_12878)">
<path d="M20.3847 8.16818C21.1234 9.57592 21.4937 11.1849 21.4535 12.8138C21.4134 14.4427 20.9645 16.0268 20.1575 17.3875C20.0848 17.5121 19.9552 17.5908 19.8215 17.5915C19.4727 17.5915 19.1229 17.5915 18.7741 17.579C18.6414 17.5741 18.5162 17.4825 18.4599 17.3489C18.3583 17.1091 18.2769 16.8585 18.1778 16.5882C18.4922 16.5882 19.637 16.7892 19.425 16.1755C19.2213 15.5839 19.0222 14.9914 18.8136 14.4015C18.7946 14.3609 18.7877 14.3147 18.7939 14.2695C18.8305 14.0054 19.0453 13.8813 18.9884 13.5619C18.8538 12.9175 18.1424 12.7322 17.7339 13.0938C17.4035 13.3518 17.371 13.8917 17.6407 14.2167C17.7738 14.3772 17.9749 14.3694 18.1028 14.5068C18.1334 14.5397 18.1548 14.5818 18.1641 14.628L18.4912 15.7263C18.3275 15.7263 17.9426 15.8314 17.8749 15.6143C17.5009 14.475 17.1263 13.3358 16.7597 12.1925C16.7396 12.1298 16.7219 12.1029 16.647 12.1029C16.0959 12.1029 14.9703 12.1029 14.9428 12.1029C15.1365 13.1499 15.3281 14.1792 15.5214 15.2169C15.5713 15.4855 15.4546 15.6949 15.2193 15.7003C14.6891 15.7127 14.1581 15.7047 13.6078 15.7047C13.4789 14.5053 13.3508 13.3104 13.2218 12.1029H12.8295C12.885 13.3023 12.9398 14.4964 12.9954 15.7011H10.9408C10.9973 14.5026 11.0544 13.3086 11.1117 12.1029H10.7298C10.5998 13.2708 10.3583 15.6135 10.3583 15.6135C10.3535 15.6814 10.3334 15.703 10.2713 15.703C9.75968 15.703 9.24885 15.7119 8.74045 15.703C8.5092 15.703 8.37464 15.5016 8.41816 15.2474C8.61224 14.1975 8.84783 13.1484 9.00633 12.0913C8.45604 12.0913 7.90567 12.1 7.35541 12.0913C7.24583 12.0913 7.20394 12.1146 7.1693 12.2229C6.64074 13.8555 6.10413 15.4845 5.58041 17.1199C5.4805 17.4322 5.30888 17.588 5.01641 17.5889C4.59662 17.5889 3.99263 17.7415 3.73532 17.2774C3.29585 16.5015 2.9647 15.6563 2.75314 14.7703C2.15611 12.1683 2.58071 9.75783 3.90129 7.53357C5.0293 5.6369 6.60367 4.3641 8.52935 3.6185C12.8517 1.97428 18.0067 3.64624 20.3847 8.16818ZM4.58938 8.57813C3.92691 8.58592 3.98751 9.04859 3.98751 9.66027C3.99185 9.71095 4.02153 9.75726 4.06324 9.77843C4.64228 10.0344 5.22267 10.2859 5.8044 10.533C5.84815 10.5487 5.89522 10.5487 5.93896 10.533C6.82793 10.1517 7.71422 9.76827 8.59784 9.38279C8.80106 9.2856 9.03706 9.28234 9.24241 9.37384C10.1053 9.75695 10.969 10.1365 11.8304 10.5222C11.9169 10.5612 12.0137 10.5612 12.1003 10.5222C12.9528 10.1365 13.8068 9.75784 14.6593 9.37295C14.8515 9.28254 15.0745 9.28254 15.2668 9.37295C16.1568 9.76023 17.0466 10.1421 17.9362 10.5187C17.9891 10.5458 18.0487 10.5524 18.1053 10.5374C18.7 10.2904 19.2914 10.0344 19.8852 9.78469C20.0374 9.72127 19.958 9.35434 19.9657 9.21453C19.9945 8.75766 19.7356 8.57107 19.359 8.57722C14.4358 8.57783 9.51258 8.57813 4.58938 8.57813ZM15.7099 8.25499C15.3179 7.12934 14.7905 6.06058 13.9461 5.2726C12.7312 4.13764 11.1665 4.14302 9.9595 5.28424C9.11934 6.07808 8.63263 7.14483 8.22156 8.25499H15.7099ZM19.9802 10.1015C19.4291 10.354 18.9054 10.592 18.3825 10.8346C18.1757 10.9334 17.935 10.9334 17.7282 10.8346C16.8581 10.4515 15.9846 10.0765 15.1137 9.69518C15.0492 9.66373 14.9736 9.66373 14.909 9.69518C14.0107 10.0854 13.1107 10.4703 12.2131 10.8588C12.0647 10.9232 11.8999 10.9232 11.7514 10.8588C10.8431 10.4649 9.93345 10.0771 9.02244 9.69518C8.96233 9.6692 8.89564 9.6692 8.83552 9.69518C7.94869 10.0789 7.06428 10.4641 6.18228 10.8507C5.98382 10.9464 5.75105 10.9434 5.55463 10.8427C5.03215 10.5885 4.50396 10.3071 3.96173 10.1096C4.51263 11.347 5.78612 11.7879 6.959 11.7879L16.954 11.7825C17.3116 11.7796 17.6682 11.737 18.0183 11.6554C18.792 11.4779 19.6892 10.9823 19.9771 10.1015H19.9802ZM9.64044 14.4874C10.0513 14.4874 10.397 14.1464 10.4091 13.732C10.4132 13.3315 10.1225 12.9643 9.76451 12.9175C9.35602 12.8575 8.97974 13.1135 8.89112 13.5109C8.77428 14.0175 9.13847 14.4919 9.63721 14.4901L9.64044 14.4874ZM14.3289 12.9067C13.8381 12.8759 13.4043 13.4186 13.5727 13.9493C13.6717 14.2614 13.9574 14.4716 14.2545 14.491C14.5221 14.5085 14.7983 14.3787 14.9515 14.1348C15.2733 13.6234 14.8845 12.9098 14.3289 12.9067ZM11.9787 14.4776C12.4532 14.4776 12.8141 14.0417 12.7336 13.5637C12.6716 13.1896 12.3823 12.9264 12.0084 12.9049C11.6731 12.8821 11.3448 13.1282 11.2381 13.4822C11.1045 13.988 11.471 14.4794 11.9754 14.4794L11.9787 14.4776ZM1.10142 20.8174C2.11824 20.6742 3.13506 20.5265 4.15348 20.4048C6.23579 20.1558 8.32066 19.9998 10.4131 19.9072C11.944 19.8391 13.4748 19.8462 15.0001 19.9439C17.3809 20.0965 19.7462 20.3421 22.1122 20.6679C22.7415 20.7574 23.3683 20.8631 24 20.9625C23.9936 20.9505 23.9857 20.9397 23.9766 20.9301C23.4213 20.5729 22.772 20.3435 22.1532 20.1694C20.0145 19.5138 17.7926 19.2392 15.5875 19.0237C14.8255 18.9487 13.0172 18.8688 13.0172 18.8688V17.6346H14.9783C15.6964 17.6497 15.6965 16.5581 14.9734 16.5971C12.9737 16.5971 10.9742 16.5971 8.97491 16.5971C8.29869 16.5971 8.20709 17.6224 8.89917 17.6327C9.57947 17.6327 10.2598 17.6327 10.9401 17.6327V18.8724C8.04374 18.8724 5.07667 19.2553 2.26649 20.0342C2.01596 20.103 0.302386 20.684 0 21C0.367801 20.9759 0.734823 20.8651 1.10142 20.8174Z" fill="url(#paint0_linear_19_12878)"/>
</g>
<defs>
<linearGradient id="paint0_linear_19_12878" x1="12" y1="22.2296" x2="11.9667" y2="3.00001" gradientUnits="userSpaceOnUse">
<stop stop-color="#FD2D20"/>
<stop offset="1" stop-color="#FEC532"/>
</linearGradient>
<clipPath id="clip0_19_12878">
<rect width="24" height="24" fill="white"/>
</clipPath>
</defs>
</svg>
