<svg width="24" height="24" viewBox="0 0 24 24" fill="none" xmlns="http://www.w3.org/2000/svg">
<path d="M14.3407 11H17.7139C17.3406 10.7296 16.9674 10.4528 16.5942 10.1824C15.9267 9.64781 15.5534 8.96857 15.4747 8.14466C15.4601 8.01258 15.453 7.87422 15.453 7.72956L15.4675 5.72956C15.4675 5.47798 15.5752 5.25786 15.7761 5.08176C15.977 4.90566 16.2138 4.81761 16.4937 4.81761C16.7665 4.81761 17.0034 4.89937 17.1972 5.05661C17.391 5.21385 17.4986 5.4151 17.5201 5.65408C17.5201 5.67924 17.5272 5.7044 17.5272 5.72956V7H19.58V5.72956C19.5872 5.64781 19.5872 5.56604 19.58 5.49057C19.5153 4.78616 19.1851 4.19497 18.6037 3.71698C18.0081 3.23899 17.312 3 16.508 3C15.6613 3 14.9363 3.26415 14.3335 3.79874C13.7305 4.33333 13.4291 4.97484 13.4148 5.72328L13.4076 8.27044C13.4004 8.47799 13.4076 8.67925 13.4219 8.86794C13.5081 9.72328 13.8095 10.4277 14.3407 11Z" fill="#FFF200"/>
<path d="M18.6125 12H15.2281C15.6162 12.2817 16.0113 12.5696 16.4065 12.8513C17.0748 13.3834 17.4198 14.0595 17.4987 14.8795C17.5132 15.011 17.5058 15.3052 17.5132 15.2927L17.5204 17.2833C17.5132 17.5336 17.4126 17.7527 17.2041 17.928C16.9957 18.1033 16.7587 18.1909 16.4784 18.1909C16.1982 18.1909 15.9681 18.1158 15.7741 17.953C15.5801 17.7965 15.4723 17.5962 15.4508 17.3584C15.4508 17.3333 15.4437 17.3083 15.4437 17.2833L15.4652 16.0188H13.4102V17.2833C13.403 17.3646 13.403 17.446 13.4102 17.5211C13.4747 18.2222 13.8053 18.8106 14.3874 19.2864C14.9766 19.7621 15.6735 20 16.4784 20C17.3264 20 18.052 19.7371 18.6558 19.205C19.2593 18.6729 19.5611 18.0344 19.5754 17.2895L19.5826 14.7543C19.5897 14.5477 19.5826 14.3474 19.5682 14.1596C19.4748 13.2895 19.1587 12.5696 18.6125 12Z" fill="#FFF200"/>
<path d="M12.0103 11C12.3513 10.5608 12.5217 10.0714 12.5217 9.53176L12.5143 5.72313C12.5217 5.64158 12.5217 5.56 12.5143 5.48471C12.4402 4.78196 12.0993 4.19216 11.4916 3.71529C10.8839 3.23843 10.1576 3 9.32023 3H6.3411V11H12.0103ZM10.0243 5.05176C10.2244 5.20863 10.3355 5.40941 10.3578 5.64783C10.3578 5.67293 10.3652 5.69803 10.3652 5.72313L10.3726 9.53176C10.3726 9.78274 10.2614 10.0023 10.0539 10.178C9.84641 10.3537 9.59443 10.4416 9.298 10.4416H8.44577V4.8196H9.298C9.58704 4.81333 9.82419 4.8949 10.0243 5.05176Z" fill="white"/>
<path d="M12.511 13.237C12.468 12.7786 12.3103 12.3705 12.038 12H6.34112V20H9.42962C10.2824 20 11.0061 19.7362 11.6081 19.2025C12.21 18.6688 12.511 18.0283 12.5181 17.281L12.511 13.4694C12.5253 13.3877 12.5253 13.3061 12.511 13.237ZM10.4472 17.281C10.4472 17.5385 10.3397 17.752 10.1391 17.9278C9.93841 18.1036 9.70193 18.1915 9.42962 18.1915H8.40491V12.5652H9.43679C9.70193 12.5652 9.92407 12.6468 10.1247 12.8038C10.3182 12.9608 10.4257 13.1617 10.4544 13.4003C10.4544 13.4254 10.4615 13.4506 10.4615 13.4757L10.4472 17.281Z" fill="white"/>
<path d="M1.04346 15.2V8.80005L4.57523 12.0289L1.04346 15.2Z" fill="white"/>
<path d="M23.9999 15.2V8.80005L20.4682 11.9968L23.9999 15.2Z" fill="white"/>
</svg>
