<svg width="24" height="24" viewBox="0 0 24 24" fill="none" xmlns="http://www.w3.org/2000/svg">
<path d="M1 11.5283L5.5199 13.0663L1.62264 15.3393L6.78824 14.7173L3.58281 18.7997L8.47169 16.4927L7.6069 21.7738L10.5817 18.2456L11.7924 21.8304L13.0723 18.2343L16.1509 22L15.6667 16.4701L19.979 19.2068L17.9843 14.3554L22.6079 14.265L18.2264 12.4443L23 9.43618L17.7883 9.14218L21.0398 4.9693L16.001 7.16317L17.1195 2.70758L14.2484 5.27464L13.9602 1L11.3312 5.61389L8.6216 1.6785L9.03667 6.54121L4.66667 3.39741L6.62682 7.8756L2.49895 7.00485L6.23479 10.5218L1 11.5283Z" fill="#FFE300"/>
<path d="M16.1164 13.3377C15.6436 12.8967 15.5168 12.3426 15.5168 12.3426C15.4937 12.2521 15.4361 12.2747 15.4361 12.2747C15.3784 12.286 15.4015 12.3539 15.4015 12.3539C15.5053 12.761 15.5629 12.8628 15.5629 12.8628C11.9078 13.6204 8.62161 12.7836 8.62161 12.7836C8.77152 12.5461 8.8753 12.2974 8.8753 12.2974C8.89834 12.2182 8.85222 12.2069 8.85222 12.2069C8.79457 12.1842 8.77152 12.2521 8.77152 12.2521C8.42562 12.8967 7.94133 13.1342 7.94133 13.1342C7.94133 13.1342 7.84908 13.1907 7.88368 13.236C7.88368 13.236 7.90673 13.2699 8.02203 13.236C8.25267 13.1229 8.48327 12.9306 8.48327 12.9306C8.85225 13.5978 9.4518 14.2311 9.4518 14.2311C10.109 14.9436 10.8239 15.2036 10.8239 15.2036C11.2967 15.4411 11.9309 15.4524 11.9309 15.4524C14.4791 15.5768 15.6321 13.0437 15.6321 13.0437C15.7474 13.236 16.0357 13.4282 16.0357 13.4282C16.174 13.4734 16.1164 13.3377 16.1164 13.3377ZM12.0231 15.2715C9.90151 15.2489 8.72539 12.9872 8.72539 12.9872L8.88682 13.0211C10.7547 13.4395 12.2768 13.383 12.4728 13.3716C12.0116 13.383 13.7988 13.383 15.217 13.1002L15.4015 13.0663C15.413 13.0663 14.283 15.2941 12.0231 15.2715Z" fill="black"/>
<path d="M11.2391 11.6414C11.2852 11.6414 12.0116 11.6527 12.0116 11.6527C12.2191 11.6188 12.1269 11.8676 12.1269 11.8676C12.0577 11.9581 12.1384 11.9807 12.1384 11.9807C12.2537 11.9807 12.2999 11.7432 12.2999 11.7432C12.3344 11.4831 12.1154 11.5283 12.1154 11.5283L11.3083 11.5057C10.5242 11.4379 10.5703 10.6689 10.5703 10.6689C10.5703 10.16 11.0661 9.71896 11.0661 9.71896C11.4581 9.36841 12.1615 9.16485 12.1615 9.16485C12.2537 9.11961 12.2307 9.09701 12.2307 9.09701C12.1845 9.02913 11.8041 9.16485 11.8041 9.16485C11.8041 9.16485 10.4665 9.53804 10.3858 10.6463C10.3858 10.6463 10.3166 11.5509 11.2391 11.6414Z" fill="black"/>
<path d="M7.75684 9.92253C7.75684 9.92253 8.21807 9.01784 8.9906 9.2101C9.76314 9.40233 9.76314 10.3297 9.76314 10.3297C9.76314 10.3297 9.90149 9.24401 9.03673 9.01784C8.05664 8.78037 7.75684 9.92253 7.75684 9.92253Z" fill="black"/>
<path d="M14.8481 9.32317C15.9665 9.41361 15.9665 10.6236 15.9665 10.6236C15.9665 10.6236 15.7936 9.56063 14.8481 9.48149C14.1908 9.42495 13.8334 10.2165 13.8334 10.2165C13.8334 10.2165 14.0409 9.26663 14.8481 9.32317Z" fill="black"/>
<path d="M8.71392 9.91123C8.17199 9.91123 7.90679 11.517 8.5525 11.5736C9.18665 11.6414 9.39421 9.86599 8.71392 9.91123Z" fill="black"/>
<path d="M8.56405 10.1487C8.56405 10.1487 8.41414 10.2279 8.37954 10.4766C8.34497 10.7254 8.34497 10.782 8.34497 10.782C8.34497 10.782 8.40262 10.8272 8.47179 10.8046C8.54097 10.7933 8.61014 10.7254 8.61014 10.7254C8.61014 10.7254 8.58709 10.6576 8.6217 10.454C8.66779 10.2618 8.71392 10.1487 8.71392 10.1487C8.71392 10.1487 8.67935 10.1374 8.64474 10.1261C8.61014 10.1374 8.56405 10.1487 8.56405 10.1487Z" fill="#FFE300"/>
<path d="M15.24 10.7933C15.2285 10.5784 15.1709 10.3523 15.0556 10.2618C15.0556 10.2618 14.9864 10.2053 14.9518 10.194C14.9172 10.1827 14.848 10.1714 14.848 10.1714C14.283 10.1374 14.0294 11.8789 14.5943 11.9355C14.9864 11.9694 15.2746 11.2909 15.24 10.7933Z" fill="black"/>
<path d="M14.6981 10.3749C14.6981 10.3749 14.5482 10.4541 14.5136 10.7028C14.479 10.9516 14.479 11.0082 14.479 11.0082C14.479 11.0082 14.5367 11.0534 14.6058 11.0308C14.675 11.0195 14.7442 10.9516 14.7442 10.9516C14.7442 10.9516 14.7211 10.8838 14.7557 10.6802C14.8019 10.488 14.848 10.3749 14.848 10.3749C14.848 10.3749 14.8134 10.3636 14.7788 10.3523C14.7442 10.3636 14.6981 10.3749 14.6981 10.3749Z" fill="#FFE300"/>
</svg>
