<svg width="24" height="24" viewBox="0 0 24 24" fill="none" xmlns="http://www.w3.org/2000/svg">
<path d="M17.73 11.7868H21.9199V16.7422C21.3159 17.1828 20.674 17.5038 19.992 17.7011C19.31 17.9004 18.598 18 17.854 18C16.884 18 15.9999 17.8486 15.2061 17.5455C14.4099 17.2425 13.7299 16.8239 13.1639 16.2878C12.5979 15.7535 12.1619 15.1196 11.8539 14.386C11.546 13.6525 11.3941 12.8551 11.3941 11.9959C11.3941 11.121 11.54 10.3156 11.8299 9.58203C12.1221 8.84848 12.538 8.21662 13.08 7.68441C13.6222 7.15221 14.276 6.73948 15.0441 6.4426C15.8116 6.14753 16.67 6 17.6202 6C18.1098 6 18.5719 6.0399 19.002 6.12154C19.434 6.20135 19.83 6.31308 20.194 6.4524C20.5429 6.5849 20.8773 6.75261 21.1919 6.95291C21.4939 7.14628 21.7639 7.35538 22 7.58066L21.208 8.78075C21.084 8.96819 20.924 9.0838 20.7259 9.12758C20.5301 9.17136 20.318 9.12165 20.0922 8.9821C19.8935 8.86218 19.6899 8.75044 19.482 8.64713C19.2898 8.55364 19.0961 8.47771 18.8961 8.41797C18.69 8.35758 18.4793 8.31426 18.266 8.28845C18.0441 8.2604 17.7979 8.24855 17.522 8.24855C17.01 8.24855 16.5479 8.33816 16.1402 8.51761C15.7389 8.69173 15.381 8.95175 15.0919 9.27922C14.8041 9.60597 14.5819 10.0007 14.4238 10.4592C14.268 10.9176 14.19 11.4299 14.19 11.9938C14.19 12.6179 14.276 13.1702 14.4481 13.6545C14.6199 14.1389 14.864 14.5454 15.1802 14.8804C15.4959 15.2154 15.872 15.4664 16.312 15.642C16.7519 15.8174 17.2379 15.9031 17.7719 15.9031C18.0999 15.9031 18.398 15.8712 18.6659 15.8053C18.932 15.7414 19.1921 15.6559 19.4461 15.5483V13.7681H18.28C18.1079 13.7681 17.972 13.7223 17.876 13.6306C17.778 13.5389 17.73 13.4231 17.73 13.2838V11.7868ZM6.32812 6.275C7.14007 6.275 7.83191 6.3507 8.4041 6.50029C8.974 6.64987 9.44003 6.86307 9.80013 7.13624C10.16 7.40919 10.424 7.7421 10.5881 8.13499C10.7521 8.52765 10.834 8.96409 10.834 9.44659C10.834 9.70973 10.796 9.96283 10.7201 10.208C10.6432 10.4551 10.5226 10.6866 10.3641 10.8916C10.2021 11.103 9.99597 11.2984 9.7418 11.4758C9.48785 11.6532 9.18402 11.8066 8.83009 11.9341C9.60613 12.1215 10.1781 12.4244 10.5501 12.8432C10.9221 13.2619 11.1081 13.8039 11.1081 14.4697C11.1081 14.9682 11.012 15.4324 10.818 15.8611C10.624 16.2898 10.3398 16.6645 9.966 16.9835C9.59194 17.3022 9.13003 17.5515 8.58186 17.7309C8.0321 17.9104 7.40592 18 6.70012 18H2V6.275H6.32812ZM4.73007 8.31034V11.2067H6.15196C6.45395 11.2067 6.7262 11.1846 6.96803 11.1429C7.21008 11.1009 7.41599 11.0252 7.58597 10.9176C7.75596 10.8099 7.88408 10.6624 7.97399 10.4752C8.06207 10.2878 8.10805 10.0504 8.10805 9.76742C8.10805 9.48831 8.07191 9.2571 8.00396 9.07194C7.93395 8.88633 7.82596 8.73675 7.68 8.62524C7.53404 8.51351 7.35009 8.43188 7.12612 8.38399C6.90191 8.33611 6.63812 8.31239 6.32995 8.31239H4.73007V8.31011V8.31034ZM6.65185 15.9487C7.01195 15.9487 7.308 15.9031 7.5361 15.8112C7.76396 15.7195 7.94402 15.6019 8.07191 15.4564C8.19857 15.3165 8.2898 15.1484 8.33798 14.9661C8.38603 14.7846 8.41005 14.5992 8.41005 14.4098C8.41005 14.1947 8.38191 14.0014 8.32608 13.8299C8.27143 13.6611 8.17104 13.5107 8.03599 13.3953C7.89803 13.2776 7.71798 13.186 7.49011 13.1223C7.26407 13.0585 6.97809 13.0266 6.634 13.0266H4.72824V15.9489H6.65208L6.65185 15.9487Z" fill="#FF3333"/>
</svg>
