<svg width="24" height="24" viewBox="0 0 24 24" fill="none" xmlns="http://www.w3.org/2000/svg">
<g clip-path="url(#clip0_29_2175)">
<path d="M12 24C18.6274 24 24 18.6274 24 12C24 5.37258 18.6274 0 12 0C5.37258 0 0 5.37258 0 12C0 18.6274 5.37258 24 12 24Z" fill="white"/>
<path d="M14.2687 18.0777C10.668 19.2687 7.19227 19.8513 4.29413 19.8596C5.71629 21.2671 7.50443 22.2548 9.45911 22.7125C11.4138 23.1703 13.4582 23.08 15.3642 22.4519C19.2947 21.1519 22.0183 17.8199 22.7787 13.9698C20.5027 15.5371 17.5765 16.9835 14.2687 18.0777Z" fill="#CF001C"/>
<path d="M14.3927 14.2247L14.0989 14.9314H14.6866L14.3927 14.2247Z" fill="#CF001C"/>
<path d="M6.42779 14.1515H6.03607V15.296H6.42779C6.50742 15.3024 6.58751 15.2924 6.66304 15.2665C6.73856 15.2407 6.80787 15.1996 6.86659 15.1458C6.92531 15.092 6.97217 15.0268 7.00423 14.9541C7.03628 14.8815 7.05283 14.8031 7.05283 14.7238C7.05283 14.6445 7.03628 14.5661 7.00423 14.4934C6.97217 14.4208 6.92531 14.3555 6.86659 14.3018C6.80787 14.248 6.73856 14.2069 6.66304 14.181C6.58751 14.1552 6.50742 14.1451 6.42779 14.1515Z" fill="#CF001C"/>
<path d="M10.3319 5.74503C13.7245 4.65091 17.0089 4.07051 19.8251 3.97666C18.3319 2.60997 16.4957 1.6671 14.5091 1.24687C12.5225 0.826642 10.4586 0.944519 8.53371 1.58815C6.60879 2.23178 4.89373 3.37746 3.56826 4.90514C2.24279 6.43282 1.35572 8.28624 1 10.2712C3.41033 8.54522 6.63916 6.93638 10.3319 5.74503Z" fill="#CF001C"/>
<path d="M16.2617 16.6018C18.5954 15.8494 20.8265 14.8138 22.9044 13.5184C23.1214 11.858 22.9681 10.1706 22.4552 8.57562C21.9464 6.97515 21.0831 5.50805 19.9286 4.28198C17.4951 4.47523 15.0951 4.967 12.7834 5.74606C10.7032 6.42115 8.7021 7.31619 6.8146 8.41575H9.03326V9.2643H6.66294V10.2569H8.75576V11.0797H6.66294V12.1376H9.11636V12.9862H5.62627V9.16655C2.5144 11.2752 0.792955 13.6499 1.38592 15.5018C2.34701 18.5005 9.00676 18.9927 16.2617 16.6018ZM11.4229 15.7548H11.0037V13.9089H11.4234L11.4229 15.7548ZM13.3583 14.257H12.7779V15.7548H12.3582V14.2578H11.7779V13.9097H13.3583V14.257ZM17.0658 15.7548H15.7368V13.9089H16.1565V15.4067H17.0658V15.7548ZM14.2814 8.41575H18.2092V9.2777H16.7658V12.9831H15.7228V9.2777H14.2804L14.2814 8.41575ZM14.6073 13.9089L15.4181 15.7548H14.9776L14.8166 15.3592H13.9746L13.8141 15.7548H13.3841L14.1925 13.9089H14.6073ZM9.79841 9.48339C10.0088 9.12632 10.3154 8.83461 10.6838 8.64113C11.0763 8.43512 11.5148 8.3307 11.9588 8.33752C12.3272 8.33256 12.6929 8.40142 13.0339 8.53998C13.3476 8.66898 13.6258 8.87046 13.8452 9.12768L13.1756 9.75459C13.0301 9.59059 12.8506 9.45963 12.6495 9.37061C12.4483 9.28159 12.2303 9.23659 12.0101 9.23867C11.7429 9.2335 11.4788 9.29631 11.243 9.42111C11.023 9.53991 10.8419 9.71899 10.7215 9.93703C10.5989 10.1721 10.5349 10.433 10.5349 10.6977C10.5349 10.9625 10.5989 11.2234 10.7215 11.4585C10.8418 11.6764 11.0214 11.8563 11.2398 11.9776C11.4712 12.1045 11.7321 12.1689 11.9964 12.1643C12.2792 12.1686 12.5584 12.1012 12.8077 11.9684V10.6294H13.7607V12.484C13.5054 12.6766 13.2176 12.8225 12.9108 12.9149C12.5963 13.0139 12.2684 13.0645 11.9384 13.0651C11.4985 13.072 11.0641 12.9675 10.6762 12.7615C10.3106 12.5666 10.0064 12.2751 9.79738 11.9192C9.58833 11.5468 9.4786 11.1276 9.4786 10.7013C9.4786 10.275 9.58833 9.85578 9.79738 9.48339H9.79841ZM8.89066 14.3403C8.97526 14.1965 9.0986 14.0789 9.24682 14.0009C9.40465 13.9177 9.5811 13.8756 9.75976 13.8783C9.9081 13.8763 10.0553 13.9041 10.1925 13.9601C10.3189 14.0124 10.4308 14.0938 10.5189 14.1977L10.2495 14.4509C10.191 14.3848 10.1188 14.332 10.0378 14.296C9.95691 14.2601 9.86912 14.2419 9.78045 14.2427C9.67319 14.2408 9.56722 14.2662 9.47269 14.3165C9.38402 14.3645 9.31113 14.4368 9.26272 14.5248C9.21341 14.6198 9.18768 14.7251 9.18768 14.8319C9.18768 14.9388 9.21341 15.0441 9.26272 15.1391C9.31109 15.227 9.38337 15.2996 9.47132 15.3487C9.56436 15.3999 9.66933 15.4258 9.77567 15.4239C9.88949 15.4256 10.0019 15.3984 10.1021 15.3448V14.8041H10.4856V15.553C10.383 15.6308 10.2672 15.6898 10.1436 15.7272C10.0171 15.7671 9.88517 15.7875 9.75241 15.7877C9.57538 15.7905 9.40058 15.7483 9.24459 15.6652C9.09739 15.5866 8.97496 15.4691 8.89083 15.3258C8.80659 15.1752 8.76239 15.0059 8.76239 14.8336C8.76239 14.6614 8.80659 14.492 8.89083 14.3415L8.89066 14.3403ZM7.89709 13.9091H8.31685V15.755H7.89709V13.9091ZM7.32584 15.3176C7.24191 15.4564 7.11959 15.5683 6.97344 15.6401C6.81115 15.7191 6.63216 15.7584 6.45143 15.7548H5.62627V13.9089H6.45024C6.63097 13.9053 6.80995 13.9446 6.97225 14.0236C7.11838 14.0954 7.24069 14.2073 7.32464 14.3461C7.4071 14.4947 7.45033 14.6616 7.45033 14.8313C7.45033 15.0009 7.4071 15.1678 7.32464 15.3165L7.32584 15.3176Z" fill="#CF001C"/>
</g>
<defs>
<clipPath id="clip0_29_2175">
<rect width="24" height="24" fill="white"/>
</clipPath>
</defs>
</svg>
