<svg width="24" height="24" viewBox="0 0 24 24" fill="none" xmlns="http://www.w3.org/2000/svg">
<g clip-path="url(#clip0_19_12466)">
<path fill-rule="evenodd" clip-rule="evenodd" d="M10.4842 9V12.7472H14.861V9.01994H17.8812C17.8847 9.53005 17.888 10.0402 17.8909 10.5509L17.9198 10.521L19.8445 9.01994L24 9.02991H23.9807L20.2497 12.2401L23.973 15.4603H19.8445L17.8651 13.8103V15.4806H2.45105C2.05704 15.4806 1.52827 15.5444 1.20053 15.4407C0.821639 15.3204 0.520266 15.0193 0.315062 14.7149C-0.0506374 14.1699 0.00822191 13.4139 0.00822191 12.4884V10.9883C0.00822191 10.76 -0.0197604 10.4782 0.02752 10.2824C0.120093 9.92963 0.318775 9.61635 0.594886 9.38782C0.79564 9.21174 1.03239 9.08495 1.28737 9.01695L2.03807 9H10.4842Z" fill="#0079FF"/>
<path fill-rule="evenodd" clip-rule="evenodd" d="M17.5643 13.1449V15.1867C12.4474 15.1867 2.17952 15.1949 2.17952 15.1949C1.52841 15.2195 0.970403 15.1523 0.585142 14.5599C0.1172 13.6328 0.354208 10.3218 0.354208 10.3218C0.515206 9.82688 0.930222 9.43694 1.42236 9.31823L10.1956 9.30859V13.0455H15.1594V9.31823H17.5836V11.1872L19.9598 9.32787H23.1534L19.7768 12.232H19.7575L23.1148 15.1232L23.1341 15.1531H19.9692L17.5643 13.1449ZM9.82068 9.6758H8.07934V14.8347H15.1695V13.433H9.82068V9.6758ZM17.2 9.70571H15.4972L15.4976 14.8148H17.199V12.3796H17.2087L20.0175 14.8141H22.2066L19.2147 12.22L22.1564 9.70571H20.0754L17.2286 11.8226L17.2093 11.8425L17.2 9.70571ZM7.6654 11.0672V9.6758C5.99415 9.67556 4.31913 9.71088 2.64835 9.66819C2.0631 9.65323 1.42236 9.61968 1.05469 9.96875C0.585142 10.4145 0.637617 13.3987 0.812536 14.0547C1.09319 14.8151 1.6265 14.8407 2.53224 14.8279C4.24277 14.8039 5.95471 14.8244 7.6654 14.8244V13.433C7.17965 13.433 2.40826 13.3735 2.40826 13.3735V12.9458H7.65671V11.582H2.40826V11.137C2.40826 11.137 7.17722 11.0672 7.6654 11.0672Z" fill="white"/>
</g>
<defs>
<clipPath id="clip0_19_12466">
<rect width="24" height="24" fill="white"/>
</clipPath>
</defs>
</svg>
