<svg width="24" height="24" viewBox="0 0 24 24" fill="none" xmlns="http://www.w3.org/2000/svg">
<path d="M21.0561 5.70317C21.0561 5.70317 18.3574 1.77783 12.3059 1.77783C7.31744 1.77783 3.55566 4.55828 3.55566 6.19383C3.55566 8.07472 7.31744 9.05605 7.31744 12.0001H13.7779C13.7779 10.2827 8.13522 9.38317 8.13522 5.70317C8.13522 2.35028 16.8854 2.59561 21.0561 5.70317Z" fill="#325ED0"/>
<path d="M21.0561 18.2969C21.0561 18.2969 18.3574 22.2222 12.3059 22.2222C7.31744 22.2222 3.55566 19.4418 3.55566 17.8062C3.55566 15.9253 7.31744 14.8622 7.31744 12H13.7779C13.7779 13.7173 8.13522 14.6169 8.13522 18.2969C8.13522 21.6498 16.8854 21.4044 21.0561 18.2969Z" fill="#D08911"/>
<path d="M3.63744 5.62134C3.55566 5.86667 3.55566 6.03023 3.55566 6.19378C3.55566 8.07467 7.31744 9.056 7.31744 12C7.31744 14.8622 3.55566 15.9253 3.55566 17.8062C3.55566 17.9698 3.55566 18.1333 3.63744 18.2969C3.14678 16.4978 9.689 14.944 12.7148 13.3084C13.369 12.8996 13.7779 12.4907 13.7779 12C13.7779 11.5093 13.369 11.1004 12.7148 10.6916C9.689 9.056 3.14678 7.50223 3.63744 5.62134Z" fill="#BD1A14"/>
</svg>
