<svg width="24" height="24" viewBox="0 0 24 24" fill="none" xmlns="http://www.w3.org/2000/svg">
<path d="M15.2527 9.0226C15.2747 9.36463 15.4716 9.7599 15.9125 9.54182C16.5606 9.22123 16.323 8.66496 16.322 8.48961C15.8706 8.55886 15.5351 8.61006 15.2527 9.0226ZM8.07722 9.55673C8.36799 9.65157 8.72507 9.25772 8.7448 8.98029C8.55086 8.73396 8.35465 8.62833 8.17277 8.56003C7.28791 8.22763 7.49525 9.36672 8.07722 9.55673ZM10.3435 11.8682C10.3435 11.8682 10.0106 12.0652 10.0106 12.3391C10.0106 13.6728 14.623 13.3881 14.0249 12.2454C13.9661 12.1331 13.9025 11.9575 13.7819 11.8687C13.2987 12.6997 10.313 13.3909 10.3435 11.8682ZM9.45357 11.1787C8.9024 11.1742 8.75957 11.5129 8.63619 11.8581C8.47206 12.3172 9.00335 12.7892 8.17277 13.0362C8.50316 13.3136 8.91262 14.0083 9.43766 14.4493C8.53226 14.6434 8.16283 13.9273 7.55445 13.602C7.73448 14.6535 8.70917 14.7881 9.28532 15.3208C9.1597 15.5454 7.74203 15.0338 7.47196 14.9664C7.95795 15.8914 8.92043 15.4351 9.51249 15.9232C8.87732 16.3308 8.20875 15.9218 7.55573 16.1416C8.46769 17.5095 10.3515 16.5491 11.517 16.0932C12.1134 15.86 11.9022 14.5181 11.3638 14.3644C9.64793 13.875 9.26197 12.7254 9.45357 11.1787ZM16.2007 13.1323C15.3708 12.8923 15.4161 11.7237 14.7326 11.17C14.5711 12.7561 14.7304 13.6827 12.7603 14.381C12.2062 14.5772 12.0669 15.8853 12.649 16.1081C13.8798 16.5781 15.5799 17.484 16.5209 16.0676C16.0881 15.8984 15.4813 16.1272 15.112 15.7653C15.6138 15.5723 16.2173 15.6963 16.5606 14.9713C16.2779 15.0412 14.9232 15.5432 14.7897 15.2992C15.3261 14.7728 16.3498 14.6917 16.3932 13.6464C15.8494 14.0021 15.4745 14.6461 14.5939 14.4347C15.1408 13.9915 15.5925 13.6254 16.2007 13.1323ZM14.6431 19.9001C14.3461 18.5381 15.7328 19.7035 16.1754 20.0442C15.5287 17.9429 13.8845 17.2811 11.4068 17.4178C9.39762 17.5287 8.09014 18.712 7.99941 20.0139C8.29932 19.784 8.84248 18.9418 9.32607 19.2741C9.4689 19.3722 9.33388 19.821 9.40373 20.0814C10.6347 20.814 12.0874 20.7427 12.0528 19.8995C12.058 21.1519 14.1443 20.3654 14.6431 19.9001ZM8.36643 3.75474C7.02005 4.54772 5.4951 3.48334 4.39371 4.11707C4.73219 4.29426 5.91828 4.80553 5.9055 4.83549C5.77261 4.78977 5.10531 4.64708 4.9169 4.58206C5.18164 5.67047 5.21015 6.17659 5.14236 7.28037C5.03072 9.09617 7.65791 10.9116 9.34637 10.5852C8.15511 9.40744 6.53166 9.13012 5.72036 7.48184C5.58917 7.21521 5.6356 6.86111 5.60039 6.54719C5.88588 6.46548 5.9501 6.87483 6.06083 7.11355C6.59247 8.25958 8.53688 7.36451 9.28461 8.78039C9.55366 9.29009 9.87766 9.78659 10.4365 10.0209C11.2872 9.50067 9.71697 7.80638 9.33544 7.40162C9.68386 7.3021 10.1192 7.03986 10.1102 6.97342H8.22232C8.2209 6.95467 8.2192 6.93579 8.21764 6.91691C8.76724 6.81738 9.86445 6.42665 9.86346 6.33096C9.42531 6.06232 7.00602 6.10287 6.99278 5.85277C7.37961 5.75329 10.5916 5.04323 10.5266 4.69167H8.04797C8.82744 4.34041 9.51561 3.83425 10.4176 3.85214C11.3559 3.87102 12.2988 3.9112 13.2323 3.84135C14.2777 3.76312 15.1009 4.25934 16.0112 4.69039H13.5234C13.5113 4.75726 14.6889 5.23289 15.292 5.39531C15.8808 5.55391 16.4727 5.70142 17.0532 5.91496C16.1044 6.15306 15.0768 5.77894 14.1166 6.393C14.633 6.97682 15.3165 6.69556 15.9412 6.95311H13.9401C13.927 7.01828 14.3642 7.2994 14.7075 7.41114C14.2622 7.88577 12.8301 9.38389 13.6106 10.0383C15.02 8.92044 17.5423 7.90024 18.3155 6.44255C19.1953 8.61497 16.068 9.5128 14.7775 10.4491C16.723 11.1828 19.4697 8.41251 18.8358 6.486C18.7663 6.27431 18.3491 5.955 18.9337 5.81572C19.041 5.78937 19.0512 4.71943 19.0622 4.59668C18.783 4.7459 18.4835 4.8017 18.1595 4.97491C18.5407 4.60932 19.0802 4.27808 19.7087 4.15839C19.7499 3.75986 17.1645 4.19741 16.9883 4.20042C16.5867 4.20737 15.8661 3.75943 15.8891 3.76284C17.6638 4.03302 19.2851 3.52005 20.8606 2.78417C21.516 2.47807 22.1617 2.8492 22.1428 3.57443C22.1067 4.96161 21.3072 5.49695 20.8687 6.64062L21.5593 6.2851C21.6476 7.15969 20.9608 7.32197 20.3371 7.57541C20.1121 7.0883 20.0356 6.86161 19.5611 6.62968C19.3362 7.10421 19.3639 7.46526 19.4309 7.99709C19.5564 8.99809 18.9866 9.50879 18.3809 10.1735C18.6736 10.4163 18.6736 10.4163 19.2727 10.1459C18.9181 11.0212 18.8625 11.0343 17.9189 11.107C17.9567 11.5017 17.9567 11.5017 19.0316 11.7679C18.9109 12.2149 18.6728 13.0781 18.0226 12.634C17.3969 12.2066 16.7818 11.8917 15.9596 12.1503C16.6269 12.5298 17.2941 12.9093 18.0085 13.3156C17.4608 14.0895 19.3078 14.7935 18.3048 15.7314C17.9461 16.0672 17.8586 18.2338 17.9141 18.254C18.4188 17.3559 20.0199 14.5527 19.1151 13.9411C19.6201 12.8984 20.0036 11.7262 20.7859 10.8399C20.7859 10.8399 19.8094 13.8478 19.7968 14.0072C19.9799 13.9606 20.7344 13.6234 20.8109 13.6631C20.3027 15.388 19.7063 16.9282 18.927 18.5486C18.9946 18.6062 19.6488 18.3284 19.8592 18.0878C21.526 16.1832 21.2654 14.0096 21.635 11.7299C22.5384 15.1813 21.4398 17.3523 19.5384 20.3023C19.4865 20.078 19.5065 19.6962 19.2572 19.6593C19.0583 20.0137 18.1556 21.9461 18.0513 21.9001C18.0513 21.475 18.3664 19.4864 17.6631 19.4879C17.0435 19.4893 17.2668 20.7678 17.2668 21.156C16.5591 20.7599 15.4876 19.8565 14.7491 20.6517C13.7231 21.7569 10.245 21.5554 9.28248 20.6301C8.53171 19.9084 7.55042 20.7309 6.83518 21.109C6.81616 20.7901 6.90574 19.5811 6.40257 19.5065C5.70731 19.4038 5.96113 21.6117 5.9197 22.0116C5.54204 21.2369 5.16451 20.4623 4.78685 19.6878C4.53515 19.7137 4.54114 20.1447 4.48486 20.3668C2.74682 17.4299 0.80093 15.2218 2.53108 11.7377C2.53108 14.1162 2.45641 17.6123 5.09295 18.6082C4.25059 16.9984 3.52082 15.3877 3.31481 13.7054L4.14837 13.9994C3.8331 12.9039 3.56864 11.7936 3.24268 10.7007C3.3678 10.9535 5.19801 14.0046 5.1222 14.0693C3.91001 15.1417 5.91144 17.2377 6.16646 18.4107C6.34338 17.6764 6.37411 16.3073 5.78581 15.7734C4.92875 14.9958 6.17237 14.1339 6.05572 13.3162C6.72373 12.9326 7.39188 12.5489 8.06643 12.1615C6.83317 11.2165 5.57096 14.0774 5.02537 11.7351C5.59485 11.6513 5.84601 11.5198 6.3056 11.173C5.31724 10.995 5.09391 11.0746 4.7904 10.1278C6.31595 10.595 4.81382 7.84332 4.50544 6.63281C4.04382 6.93565 3.91661 7.07638 3.72427 7.59159C3.13904 7.29798 2.39137 7.20314 2.4997 6.30072L3.18376 6.64658C2.74484 5.48368 1.92785 4.94919 1.91262 3.53496C1.90509 2.84338 2.56274 2.45748 3.17496 2.78502C4.81098 3.66023 6.56587 3.92467 8.36643 3.75474Z" fill="#FF3333"/>
</svg>
