<svg width="24" height="24" viewBox="0 0 24 24" fill="none" xmlns="http://www.w3.org/2000/svg">
<path d="M20.3309 5.40784H4.26133C3.56611 5.40784 3 5.97394 3 6.66917V22.7387C3 23.4389 3.56611 24 4.26133 24H20.3309C21.031 24 21.5922 23.4339 21.5922 22.7387V6.66917C21.5922 5.97394 21.0261 5.40784 20.3309 5.40784ZM14.6598 10.5972C14.5258 10.5773 14.3967 10.5574 14.2725 10.5376C14.1484 10.5227 14.0043 10.5127 13.8355 10.5127C13.4432 10.5127 13.1453 10.622 12.9417 10.8355C12.7381 11.054 12.6387 11.3619 12.6387 11.7641V12.7623H14.3669V14.4656H12.6387V20.1366H10.2104V14.4705H8.86965V12.7672H10.2104V11.7691C10.2104 10.761 10.5034 9.98139 11.0844 9.43515C11.6654 8.88891 12.4848 8.61578 13.5376 8.61578C13.7412 8.61578 13.9497 8.63068 14.1633 8.66048C14.3768 8.69027 14.6102 8.73496 14.8634 8.78959L14.6598 10.5972Z" fill="url(#paint0_linear_4880_50)"/>
<path d="M20.7479 2.18994H3.87887C3.40711 2.18994 3.01978 2.57728 3.01978 3.04904C3.01978 3.52079 3.40711 3.90813 3.87887 3.90813H20.7479C21.2197 3.90813 21.607 3.52079 21.607 3.04904C21.607 2.57728 21.2197 2.18994 20.7479 2.18994Z" fill="url(#paint1_linear_4880_50)"/>
<path d="M3.37742 0.715084H21.2545C21.4532 0.715084 21.6121 0.551211 21.6121 0.357542C21.6121 0.158908 21.4482 0 21.2545 0H3.37742C3.17879 0 3.01989 0.163873 3.01989 0.357542C3.01492 0.551211 3.17879 0.715084 3.37742 0.715084Z" fill="url(#paint2_linear_4880_50)"/>
<defs>
<linearGradient id="paint0_linear_4880_50" x1="2.99623" y1="14.7062" x2="21.5935" y2="14.7062" gradientUnits="userSpaceOnUse">
<stop stop-color="#BA2030"/>
<stop offset="1" stop-color="#DE1D38"/>
</linearGradient>
<linearGradient id="paint1_linear_4880_50" x1="3.01601" y1="3.0527" x2="21.6083" y2="3.0527" gradientUnits="userSpaceOnUse">
<stop stop-color="#BA2030"/>
<stop offset="1" stop-color="#DE1D38"/>
</linearGradient>
<linearGradient id="paint2_linear_4880_50" x1="3.01612" y1="0.353897" x2="21.6085" y2="0.353897" gradientUnits="userSpaceOnUse">
<stop stop-color="#BA2030"/>
<stop offset="1" stop-color="#DE1D38"/>
</linearGradient>
</defs>
</svg>
