<svg width="24" height="24" viewBox="0 0 24 24" fill="none" xmlns="http://www.w3.org/2000/svg">
<g clip-path="url(#clip0_19_12455)">
<path d="M1.37981 14.124C0.206732 12.951 0.206731 11.049 1.37981 9.87596L9.87596 1.37981C11.049 0.206732 12.951 0.206731 14.124 1.37981L22.6202 9.87596C23.7933 11.049 23.7933 12.951 22.6202 14.124L14.124 22.6202C12.951 23.7933 11.049 23.7933 9.87596 22.6202L1.37981 14.124Z" fill="#FF3333"/>
<path d="M12.5669 19.8096L5.34302 7.70588L15.5502 7.68457L14.4954 9.49586H8.48614L9.34917 10.8597H13.6537L12.5669 12.6709H10.4359L12.5669 16.2829L14.7191 12.6709H13.6537L14.7191 10.8597H17.8622L12.5669 19.8096Z" fill="white"/>
</g>
<defs>
<clipPath id="clip0_19_12455">
<rect width="24" height="24" fill="white"/>
</clipPath>
</defs>
</svg>
