<svg width="24" height="24" viewBox="0 0 24 24" fill="none" xmlns="http://www.w3.org/2000/svg">
<path d="M21.9702 11.863H12.3262V15.2669H17.8781C17.3474 16.3889 16.6493 17.2129 15.7838 17.739C13.2932 19.2526 9.73135 18.5737 7.70235 16.6132C5.13143 14.1291 5.05653 9.92001 7.62995 7.41012C10.6151 4.4982 15.3361 5.24843 18.0586 8.10926L20.6284 5.58279C16.7771 1.45794 9.85533 0.565965 5.45197 4.46579C5.46213 4.52181 5.12506 4.90625 5.09658 4.95568C3.89068 6.59375 0.234436 12.0156 4.29212 17.9839C5.38503 19.4682 7.01596 20.4894 8.70854 21.1764C12.0058 22.5138 16.7042 22.0452 19.1607 19.2742C19.773 18.5835 21.4401 14.2867 21.8748 14.1839C22.004 13.409 21.9993 12.6438 21.9702 11.863Z" fill="white"/>
<path d="M21.9147 13.9007C21.7443 15.1377 21.3286 16.3289 20.6917 17.4052C19.8229 18.8984 18.6977 20.0374 17.3162 20.8223C15.9347 21.6071 14.3143 21.9997 12.4551 22C10.4657 22 8.69125 21.5706 7.13167 20.712C6.24764 20.2284 5.4481 19.6061 4.76397 18.8691C4.6172 18.7126 6.08827 19.2131 8.37519 19.3948C10.2018 19.5405 12.6224 19.4497 14.6276 18.8909C16.6681 18.3221 18.5784 17.156 19.8714 16.0541C21.2371 14.8885 21.9279 13.7977 21.9147 13.9007Z" fill="url(#paint0_linear_19_12448)"/>
<path d="M9.65513 21.6743C8.64625 21.4751 7.68005 21.1025 6.80015 20.5733C5.63094 19.8669 4.92067 19.0599 4.4393 18.504C3.25921 17.1975 2.47342 15.5873 2.17187 13.8578C1.84189 12.1056 1.98882 10.2977 2.59748 8.62074C3.02992 7.41027 3.64354 6.35532 4.43832 5.4558C4.76409 5.08904 5.11658 4.74655 5.49305 4.43115C5.49305 4.43115 5.10171 6.15885 4.79936 8.34522C4.36984 11.4431 5.10315 14.2382 5.10315 14.2382C5.45699 15.6612 6.02256 17.0237 6.78106 18.2811C7.55644 19.5531 8.526 20.6978 9.65513 21.6743Z" fill="url(#paint1_linear_19_12448)"/>
<defs>
<linearGradient id="paint0_linear_19_12448" x1="5.65283" y1="18.5728" x2="21.818" y2="14.85" gradientUnits="userSpaceOnUse">
<stop offset="0.01" stop-color="#FBE1AE"/>
<stop offset="1" stop-color="#F2A50A"/>
</linearGradient>
<linearGradient id="paint1_linear_19_12448" x1="5.39351" y1="6.23275" x2="8.08291" y2="19.7972" gradientUnits="userSpaceOnUse">
<stop offset="0.01" stop-color="#FBE1AE"/>
<stop offset="1" stop-color="#F2A50A"/>
</linearGradient>
</defs>
</svg>
