<svg width="24" height="24" viewBox="0 0 24 24" fill="none" xmlns="http://www.w3.org/2000/svg">
<path d="M10.862 1.58608C11.1249 1.58641 11.3586 1.35604 11.3621 1.09318V1.10008C11.3621 0.834806 11.1273 0.599976 10.862 0.599976C10.5967 0.599976 10.3619 0.834806 10.3619 1.10008V1.09318C10.3657 1.35594 10.5992 1.5861 10.862 1.58608Z" fill="#FEAC32"/>
<path d="M14.8646 5.31958C15.1367 5.3199 15.3644 5.09275 15.3647 4.82068V4.82638C15.3647 4.5539 15.1369 4.32613 14.8645 4.32613C14.592 4.32613 14.3642 4.5539 14.3642 4.82638V4.81498C14.3617 5.0892 14.5904 5.31975 14.8646 5.31958Z" fill="#FEAC32"/>
<path d="M12.8627 3.60508C13.7648 3.61111 13.6606 1.15648 12.866 1.15648C12.0745 1.15648 11.9683 3.59758 12.8627 3.60508Z" fill="#FEAC32"/>
<path d="M10.8614 4.93348C11.7652 4.93348 11.6321 2.48578 10.8614 2.48578C10.0887 2.48578 9.9611 4.93186 10.8614 4.93348Z" fill="#FEAC32"/>
<path d="M18.8663 9.02608C18.59 9.02608 18.3659 9.24988 18.3659 9.52618V9.77818C18.3446 10.0344 18.107 10.2458 17.8501 10.2373C17.5932 10.2289 17.3701 10.0022 17.3657 9.74518V8.49778C17.3531 8.24082 17.1226 8.02129 16.8653 8.02129C16.608 8.02129 16.3775 8.24082 16.3649 8.49778V8.52508C16.3649 8.79035 16.1301 9.02518 15.8648 9.02518C15.5995 9.02518 15.3647 8.79035 15.3647 8.52508V6.43318C15.3647 6.16822 15.1302 5.93368 14.8652 5.93368C14.6003 5.93368 14.3657 6.16822 14.3657 6.43318V7.23058C14.3583 7.49439 14.1273 7.72477 13.8635 7.73158C13.598 7.73189 13.3637 7.49816 13.3634 7.23268V4.97848C13.3634 4.71297 13.1284 4.47793 12.8629 4.47793C12.5973 4.47793 12.3623 4.71297 12.3623 4.97848V6.93958C12.3623 7.20485 12.1275 7.43968 11.8622 7.43968C11.5969 7.43968 11.3621 7.20485 11.3621 6.93958V6.23518C11.3621 5.96975 11.1271 5.73478 10.8617 5.73478C10.5963 5.73478 10.3613 5.96975 10.3613 6.23518V7.74268C10.3613 8.00848 10.127 8.24278 9.86121 8.24278C9.5954 8.24278 9.36111 8.00848 9.36111 7.74268V5.64778C9.36111 5.38251 9.12628 5.14768 8.86101 5.14768C8.59574 5.14768 8.36091 5.38251 8.36091 5.64778V8.84788C8.36091 9.11323 8.12601 9.34813 7.86066 9.34813C7.59531 9.34813 7.36041 9.11323 7.36041 8.84788V8.00248C7.36041 7.73705 7.12543 7.50208 6.86001 7.50208C6.59458 7.50208 6.35961 7.73705 6.35961 8.00248V10.3581C6.34866 10.6162 6.11745 10.8378 5.85906 10.8378C5.60066 10.8378 5.36945 10.6162 5.35851 10.3581C5.35851 9.93862 5.51076 9.08308 4.85841 9.08308C4.20826 9.08308 4.35446 9.93838 4.34991 10.3581V19.0221L11.8568 23.3592L19.3634 19.0251V9.52708C19.3642 9.26244 19.1309 9.02735 18.8663 9.02608ZM15.3935 17.5275H13.0349V15.732H10.6772V17.5266H8.31951V11.9064H10.6775V13.7955H13.0349V11.9064H15.3929L15.3935 17.5275Z" fill="#FEAC32"/>
<path d="M13.035 17.5275H15.3936L15.393 11.9064H13.035V13.7955H10.6776V11.9064H8.31958V17.5266H10.6773V15.732H13.035V17.5275Z" fill="white"/>
</svg>
