<svg width="24" height="24" viewBox="0 0 24 24" fill="none" xmlns="http://www.w3.org/2000/svg">
<path d="M11.6029 13.559H14.3372V15.7042L18.6666 15.8136V3.79633C18.6666 3.66499 18.5982 3.55554 18.4843 3.55554H14.5195C14.4056 3.55554 14.3372 3.6431 14.3372 3.79633V9.48757H11.6029V3.79633C11.6029 3.66499 11.5345 3.55554 11.4206 3.55554H7.50136C7.38743 3.55554 7.31907 3.6431 7.31907 3.79633V15.5509L11.6029 15.6604V13.559Z" fill="#64CB5B"/>
<path d="M12.1642 20.2271C12.1642 20.3575 12.2313 20.4444 12.3433 20.4444H16.2179C16.3299 20.4444 16.3971 20.3575 16.3971 20.2271V16.4671L12.1418 16.3584L12.1642 20.2271Z" fill="#64CB5B"/>
<path d="M5.51337 20.4444H9.38594C9.49851 20.4444 9.58857 20.3555 9.58857 20.2221V16.175L5.33325 16.086V20.2221C5.33325 20.3555 5.4008 20.4444 5.51337 20.4444Z" fill="#64CB5B"/>
</svg>
