<svg width="24" height="24" viewBox="0 0 24 24" fill="none" xmlns="http://www.w3.org/2000/svg">
<path d="M20.2966 3.88835C21.4404 3.73445 21.0578 1.93247 20.0866 2.00196H9.50196C8.10535 2.00196 8.09543 3.7804 9.14827 3.88783C10.336 4.00901 10.4138 4.5053 10.52 4.81403C10.5526 9.55354 10.531 18.6973 10.531 19.2241C10.3824 17.7973 11.0647 12.9304 6.29569 14.0262C3.02312 14.7781 2.63534 17.5516 3.23508 19.5153C3.98708 21.9775 6.41773 22.9794 7.72411 22.9794H11.8947C16.7465 23.285 19.2531 20.1254 19.2531 17.7973C19.2695 13.5083 19.3315 5.27516 19.2923 4.81456C19.2532 4.35396 19.5088 3.99436 20.2966 3.88835Z" fill="#621401"/>
<path d="M19.5834 2.0026H10.2996C8.86135 2.0026 8.86253 3.32089 9.94676 3.42825C11.1699 3.54935 11.2501 4.04531 11.3594 4.35384C11.393 9.09022 11.3594 18.6869 11.3594 19.2134C11.3594 19.8818 10.754 20.0306 10.5017 20.114V21.8901C15.7283 22.5505 18.7251 20.114 18.7251 17.7875C18.7419 13.5014 18.7654 4.81414 18.7251 4.35384C18.6847 3.89355 18.948 3.53418 19.7593 3.42825C20.9372 3.27445 20.5836 1.93316 19.5834 2.0026Z" fill="url(#paint0_linear_197_17593)"/>
<path d="M3.99364 19.3885C4.80999 21.1687 7.44106 21.715 8.78639 21.715V20.214C7.13184 19.9339 7.35689 19.5469 7.67623 19.3885C9.41171 18.4279 9.89603 17.604 9.92126 17.3122C10.1147 15.928 9.69397 13.3174 6.46522 13.96C3.07849 14.6341 3.13549 17.5172 3.99364 19.3885Z" fill="url(#paint1_linear_197_17593)"/>
<path fill-rule="evenodd" clip-rule="evenodd" d="M19.5941 2.30811H10.2996C9.66336 2.30811 9.49933 2.58504 9.48285 2.71369C9.46624 2.84326 9.56106 3.08304 9.97737 3.12426C10.6248 3.18836 11.0283 3.35682 11.2841 3.6004C11.5052 3.81096 11.586 4.05813 11.6323 4.19969C11.6388 4.21952 11.6446 4.23728 11.65 4.25257L11.6671 4.30069L11.6674 4.35169C11.6961 8.38817 11.6759 15.9543 11.6693 18.4295C11.6682 18.8595 11.6674 19.1359 11.6674 19.2134C11.6674 19.6595 11.4566 19.9506 11.2057 20.1306C11.074 20.225 10.9293 20.2893 10.8098 20.3336V21.6185C13.2407 21.8792 15.1325 21.4443 16.4173 20.6955C17.7529 19.9171 18.417 18.8144 18.417 17.7875V17.7863C18.4254 15.6434 18.4355 12.4004 18.4385 9.63567C18.4399 8.25325 18.4396 6.99078 18.4364 6.04533C18.4332 5.08807 18.4268 4.47873 18.4182 4.38031C18.392 4.08151 18.4646 3.78016 18.7051 3.54199C18.9348 3.31456 19.2801 3.18269 19.7191 3.12536C19.9542 3.09466 20.072 3.01109 20.1279 2.94113C20.1837 2.87136 20.2036 2.78365 20.1855 2.68868C20.1486 2.49583 19.9501 2.28339 19.6049 2.30736L19.5941 2.30811ZM10.5017 21.8901V20.114C10.5174 20.1088 10.5344 20.1034 10.5526 20.0976C10.8269 20.0101 11.3594 19.8402 11.3594 19.2134C11.3594 19.1353 11.3601 18.8577 11.3613 18.4259C11.3679 15.9469 11.388 8.38768 11.3594 4.35384C11.352 4.33304 11.3448 4.31138 11.3373 4.28904C11.234 3.98013 11.0873 3.54118 9.94677 3.42825C8.86253 3.32089 8.86135 2.0026 10.2996 2.0026H19.5834C20.5836 1.93316 20.9372 3.27445 19.7593 3.42825C18.948 3.53418 18.6847 3.89355 18.7251 4.35384C18.7654 4.81414 18.7419 13.5014 18.7251 17.7875C18.7251 20.114 15.7283 22.5505 10.5017 21.8901ZM9.92126 17.3122C9.89603 17.604 9.41171 18.4279 7.67623 19.3885C7.35689 19.5469 7.13184 19.9339 8.78639 20.214V21.715C8.68994 21.715 8.58687 21.7122 8.47834 21.7063C7.07311 21.6303 4.75146 21.0411 3.99364 19.3885C3.13549 17.5172 3.07849 14.6341 6.46522 13.96C9.69397 13.3174 10.1147 15.928 9.92126 17.3122ZM8.47834 21.4004C7.86202 21.3653 7.05857 21.2269 6.30363 20.9347C5.41103 20.5893 4.63486 20.0488 4.27406 19.262C3.86375 18.3673 3.65872 17.2561 3.93361 16.3099C4.19986 15.3934 4.9314 14.5769 6.52584 14.2596C7.29331 14.1068 7.86539 14.153 8.28975 14.3053C8.71058 14.4563 9.00816 14.7193 9.21768 15.0416C9.64658 15.7013 9.70761 16.6157 9.61612 17.2702L9.61502 17.2781L9.61433 17.2861C9.61328 17.2982 9.6006 17.3606 9.53579 17.4742C9.47381 17.5828 9.37218 17.724 9.21488 17.8911C8.90106 18.2246 8.37516 18.6512 7.53163 19.1187C7.43061 19.1697 7.30347 19.2539 7.22198 19.3816C7.17745 19.4514 7.14194 19.5419 7.14285 19.6481C7.14378 19.756 7.18222 19.8535 7.24157 19.9348C7.35077 20.0844 7.53769 20.1904 7.76022 20.2746C7.94334 20.3438 8.17931 20.4087 8.47834 20.4682V21.4004Z" fill="url(#paint2_linear_197_17593)"/>
<defs>
<linearGradient id="paint0_linear_197_17593" x1="19.5143" y1="1.70626" x2="7.03003" y2="22.0928" gradientUnits="userSpaceOnUse">
<stop stop-color="#FFFA35"/>
<stop offset="0.465" stop-color="#D6AF45"/>
<stop offset="1" stop-color="#E9A000"/>
</linearGradient>
<linearGradient id="paint1_linear_197_17593" x1="19.5143" y1="1.70626" x2="7.03003" y2="22.0928" gradientUnits="userSpaceOnUse">
<stop stop-color="#FFFA35"/>
<stop offset="0.465" stop-color="#D6AF45"/>
<stop offset="1" stop-color="#E9A000"/>
</linearGradient>
<linearGradient id="paint2_linear_197_17593" x1="12" y1="2" x2="12" y2="22" gradientUnits="userSpaceOnUse">
<stop stop-color="#F9DF37"/>
<stop offset="1" stop-color="#F2AC00"/>
</linearGradient>
</defs>
</svg>
