<svg width="24" height="24" viewBox="0 0 24 24" fill="none" xmlns="http://www.w3.org/2000/svg">
<path d="M11.5614 2.13C11.5614 2.13 18.8504 3.95121 20.2004 4.2982C21.5499 4.64518 22.0222 5.01386 21.9772 6.61868C21.9324 8.22302 21.8424 13.2539 21.7522 14.6413C21.6622 16.051 21.5949 16.8531 20.8977 17.3955C19.2837 18.6512 17.6713 19.9089 16.0607 21.1686C15.0709 21.9274 13.9232 22.1876 12.2362 21.6023C10.5489 21.0167 5.03719 19.1517 3.97969 18.718C2.89969 18.2845 2.53969 17.3086 2.47219 15.9859C2.40494 14.6845 2.11244 8.57 2.02244 7.42085C1.93294 6.27145 2.47294 5.14374 4.49744 4.27651C6.52244 3.40904 7.30944 3.06205 8.81669 2.43362C10.3017 1.8047 11.5617 2.13 11.5617 2.13H11.5614Z" fill="url(#paint0_linear_19_12439)"/>
<path opacity="0.1" d="M20.2005 4.29851C21.2577 4.60213 21.325 4.9708 20.268 5.49128L15.7457 7.74622C14.801 8.22333 13.3837 8.63538 12.3265 8.33177L3.39474 5.75128C2.33749 5.44767 3.12524 4.88405 4.56499 4.27707L8.50199 2.60719C10.0092 1.89152 10.6167 1.89152 11.5615 2.15177L20.2005 4.29875V4.29851Z" fill="white"/>
<path opacity="0.1" d="M14.126 20.258C14.126 21.2768 13.271 21.884 12.2135 21.6023L3.9575 18.7182C2.9 18.4363 2.4725 17.3086 2.4725 16.2898L2 7.44234C2 6.42307 2.4275 5.92475 3.485 6.2062L12.236 8.85198C13.2935 9.13391 14.126 10.0228 14.126 11.0419V20.258Z" fill="white"/>
<path opacity="0.2" d="M21.7526 14.6421C21.7526 15.7047 21.7076 16.6589 20.8976 17.3961L16.0611 21.1688C14.9589 21.7327 14.5989 21.0387 14.5989 19.9761L14.7564 11.0204C14.7564 9.95798 15.0489 8.9387 16.1514 8.37509L21.1451 5.70858C22.0001 5.14473 22.0001 5.53509 22.0001 6.61943L21.7526 14.6426V14.6423V14.6421Z" fill="black"/>
<path d="M5.14917 4.92711C5.14917 5.33916 5.95917 5.68615 6.94917 5.68615C7.93917 5.68615 8.74867 5.33916 8.74867 4.92711C8.74867 4.51507 7.93917 4.16808 6.94892 4.16808C5.95942 4.14639 5.14917 4.49338 5.14917 4.92711Z" fill="white"/>
<path d="M10.1887 4.92711C10.1887 5.33916 10.999 5.68615 11.9887 5.68615C12.9782 5.68615 13.7887 5.33916 13.7887 4.92711C13.7887 4.51507 12.9787 4.16808 11.9887 4.16808C10.9987 4.14639 10.189 4.49338 10.189 4.92711H10.1887Z" fill="white"/>
<path d="M15.2732 4.92789C15.2732 5.33969 16.0607 5.66475 17.0279 5.66475C17.9954 5.66475 18.7827 5.33945 18.7827 4.92765C18.7827 4.5156 17.9952 4.1903 17.0277 4.1903C16.0607 4.16861 15.2732 4.5156 15.2732 4.92765V4.92789Z" fill="white"/>
<path d="M9.73905 14.6418C9.60405 14.3818 9.5813 14.0346 9.71605 13.8611C10.3875 12.957 11.1862 12.1327 11.921 11.2808C12.1685 10.9989 12.056 10.6953 11.7185 10.5869L9.89605 10.023C9.53605 9.91458 9.24405 9.84952 9.1088 10.0447C8.42649 10.9216 7.80102 11.8477 7.12905 12.7336C6.90405 13.0155 6.85905 13.5143 7.03905 13.8394L9.35655 18.4146C9.5363 18.8049 9.7388 19.0435 10.279 19.2172L11.966 19.8025C12.326 19.911 12.461 19.7592 12.3035 19.4339C11.4468 17.838 10.5719 16.2503 9.73905 14.6418Z" fill="white"/>
<path d="M6.88183 17.3524L6.49933 9.50275C6.43183 9.06853 5.89183 8.7654 5.89183 8.7654C5.39708 8.61335 4.78958 8.39672 4.27233 8.24492C3.64233 8.13648 3.64233 8.63528 3.64233 8.63528C3.73233 10.37 3.97983 14.837 4.04733 16.4847V16.528C4.04733 16.6148 4.13733 17.0268 4.58733 17.2437C5.05958 17.4172 5.75733 17.6124 6.20683 17.7859C6.25183 17.7859 6.88183 17.8946 6.88183 17.3524Z" fill="white"/>
<path d="M20.6498 15.2269C20.6498 15.2052 20.6498 15.1838 20.6278 15.1619C20.2121 13.0679 19.8457 10.9627 19.4123 8.87392C19.4123 8.83055 19.4123 8.78718 19.3673 8.7438C19.2773 8.63537 19.0973 8.59199 18.9623 8.61392C18.9173 8.61392 18.8726 8.63561 18.8498 8.63561C18.8276 8.63561 18.7826 8.67898 18.7598 8.67898C18.6473 8.74404 18.5351 8.80886 18.4226 8.85224L18.2878 8.9173C17.8826 9.15585 17.7703 9.58958 17.7703 9.58958C17.247 12.6162 16.5735 15.6206 15.9703 18.6318L15.8578 19.1089V19.1306C15.8353 19.2173 15.8128 19.4559 15.9478 19.499C16.1973 19.5471 16.7348 19.0184 16.9153 18.892C17.1403 18.7185 17.1851 18.4583 17.1851 18.4583C17.3426 17.5043 17.5001 16.5934 17.6576 15.7913L19.1201 14.7503C19.2551 15.4877 19.3676 16.1383 19.4576 16.7238C19.4576 16.7238 19.4801 16.8971 19.7051 16.7889C20.043 16.5446 20.5857 16.2654 20.7396 15.8563C20.7626 15.6828 20.6951 15.4004 20.6498 15.2269ZM18.7151 13.1452L18.1753 13.5139C18.0853 13.579 18.0178 13.5356 18.0406 13.4272L18.1756 12.7332C18.1981 12.625 18.2428 12.4298 18.2428 12.3214L18.4903 10.9771C18.5128 10.8686 18.5353 10.8686 18.5578 10.9771L18.8503 12.8202C18.8728 12.9286 18.8051 13.0802 18.7151 13.1452Z" fill="#BEBEBE"/>
<defs>
<linearGradient id="paint0_linear_19_12439" x1="-3.61406" y1="1.64277" x2="23.2442" y2="19.6027" gradientUnits="userSpaceOnUse">
<stop offset="0.208" stop-color="#EFA26F"/>
<stop offset="0.474" stop-color="#D2000E"/>
<stop offset="1" stop-color="#7D0000"/>
</linearGradient>
</defs>
</svg>
