<svg width="24" height="24" viewBox="0 0 24 24" fill="none" xmlns="http://www.w3.org/2000/svg">
<path d="M12.0358 9.4044C12.0698 9.58585 12.3124 10.2794 11.9865 10.2925C11.2479 10.3206 10.4988 10.3154 9.7602 10.2909C9.69272 10.2886 9.65272 10.2537 9.65302 10.1855C9.65454 9.69361 9.38301 9.10713 9.09744 8.72382C8.1352 7.43242 6.02046 7.58302 4.58587 7.7086C4.53019 7.71343 4.50289 7.74908 4.50074 7.80228C4.47009 8.54532 4.49594 9.29368 4.49689 10.0372C4.49725 10.2949 4.49557 10.2935 4.24893 10.2932C3.53547 10.2925 2.79048 10.3602 2.0805 10.2847C2.03925 10.2802 2.01087 10.2535 2.00799 10.2106C1.899 8.67193 2.00052 7.09241 2.00017 5.54986C2.00005 5.23995 1.99127 5.26304 2.30283 5.26295C5.8905 5.26183 11.1428 4.63882 12.0358 9.4044Z" fill="white"/>
<path d="M14.364 17.9375C14.31 17.9359 14.2746 17.907 14.2705 17.8522C14.1245 15.8468 14.2644 13.7803 14.2661 11.7693C14.2663 11.4162 14.2348 11.4453 14.5868 11.4446C15.2701 11.4435 15.9597 11.4152 16.6424 11.4486C16.6955 11.4511 16.7326 11.4779 16.7352 11.5343C16.7869 12.7209 16.7418 13.917 16.7427 15.1047C16.743 15.4682 16.7075 15.4449 17.0786 15.4449C18.6108 15.445 20.1432 15.4447 21.6755 15.4451C22.0283 15.4452 21.9994 15.4195 21.9996 15.7677C22.0002 16.4597 22.0355 17.1607 21.9942 17.8517C21.9908 17.9067 21.9556 17.9358 21.9015 17.9375C19.4038 18.0152 16.8617 18.0152 14.364 17.9375Z" fill="white"/>
<path d="M4.47559 17.8112C4.17797 17.8228 2.01179 17.8112 2.01179 17.8112C1.97479 15.758 2.00517 11.47 2.00517 11.47C2.2937 11.4636 4.47559 11.4701 4.47559 11.4701V17.8112Z" fill="white"/>
<path d="M12.1426 17.9329C11.4151 17.9347 10.4434 18.0411 9.72407 17.9329C9.6964 15.8836 9.61784 13.8278 9.6497 11.7786C9.65305 11.5304 9.65315 11.5286 9.90276 11.5281C10.6024 11.5269 11.3147 11.4872 12.0131 11.5289C12.1167 11.5352 12.138 11.5572 12.1426 11.6723C12.2293 13.7063 12.1438 15.8608 12.1426 17.9329Z" fill="white"/>
<path d="M16.7412 10.0362C16.7408 10.29 16.7388 10.2922 16.4959 10.2926C15.7867 10.2938 15.0636 10.3362 14.3558 10.2875C14.2983 10.2837 14.2722 10.2457 14.2693 10.1938C14.1832 8.64941 14.2651 7.07861 14.2658 5.53185C14.2659 5.17423 14.2362 5.20443 14.5831 5.20395C15.2672 5.203 15.9542 5.18383 16.638 5.20682C16.7083 5.2092 16.7374 5.25202 16.739 5.31706C16.7817 6.8877 16.7431 8.46486 16.7412 10.0362Z" fill="white"/>
</svg>
