<svg width="24" height="24" viewBox="0 0 24 24" fill="none" xmlns="http://www.w3.org/2000/svg">
<path d="M11.8105 23C12.6507 23 13.4415 22.4934 14.1273 21.6037C14.0037 21.5543 13.8863 21.4864 13.7813 21.3999C11.9811 23.6043 10.0902 21.5412 9.24659 19.5527C8.24232 17.1992 7.92449 14.5361 7.92449 11.9969C7.92449 9.59769 8.40419 1.55602 12.0515 1.55602C13.0523 1.55602 14.0716 2.60629 14.85 4.44117C16.7289 8.8435 16.748 14.4586 15.0787 18.9658C15.2022 19.0028 15.3196 19.0584 15.4246 19.1326C16.1351 17.2112 16.5614 14.7214 16.5614 11.9969C16.5614 5.92389 14.4362 1 11.8105 1C9.18482 1 7.05957 5.92389 7.05957 11.9969C7.05957 18.0699 9.19099 23 11.8105 23Z" fill="#008F5F"/>
<path d="M14.6586 21.4122C15.2692 21.4122 15.7644 20.9172 15.7644 20.3064C15.7644 19.6956 15.2692 19.2005 14.6586 19.2005C14.0478 19.2005 13.5527 19.6956 13.5527 20.3064C13.5527 20.9172 14.0478 21.4122 14.6586 21.4122Z" fill="#008F5F"/>
<path d="M2.20977 6.49842C2.62987 5.76941 3.46391 5.33695 4.57595 5.18868C4.55742 5.32459 4.55742 5.45433 4.57595 5.58407C3.71721 5.71999 3.09941 6.0536 2.80903 6.56638C0.984787 9.7194 7.72115 14.155 9.79022 15.3578C11.8675 16.5549 19.0679 20.1602 20.8921 17.0073C22.7164 13.8541 15.9802 9.41875 13.911 8.21591C11.8779 7.0442 9.65262 6.08831 7.33136 5.67674C7.35608 5.547 7.36843 5.42344 7.36225 5.2937C9.37629 5.63967 11.7487 6.51695 14.1086 7.87612C19.3724 10.9157 22.5726 15.2157 21.2567 17.4892C19.9407 19.7627 14.6153 19.1387 9.35776 16.1053C4.10025 13.0719 0.900023 8.77194 2.20977 6.49842Z" fill="#FF3333"/>
<path d="M5.96601 6.49225C6.57676 6.49225 7.07188 5.99714 7.07188 5.38638C7.07188 4.77563 6.57676 4.28052 5.96601 4.28052C5.35526 4.28052 4.86014 4.77563 4.86014 5.38638C4.86014 5.99714 5.35526 6.49225 5.96601 6.49225Z" fill="#FF3333"/>
<path d="M21.7262 6.49842C21.3061 5.76941 20.472 5.33695 19.36 5.18868C19.3786 5.32459 19.3786 5.45433 19.36 5.58407C20.2188 5.71999 20.8366 6.0536 21.1269 6.56638C22.9512 9.71949 16.2149 14.155 14.1458 15.3578C12.0685 16.5549 4.86809 20.1602 3.04381 17.0073C2.54338 16.1423 2.94496 14.7275 4.1435 13.1398C5.69209 11.0951 7.82339 9.49566 10.025 8.21591C12.058 7.04419 14.2834 6.0883 16.6046 5.67674C16.5799 5.547 16.5675 5.42344 16.5737 5.2937C14.5596 5.63967 12.1873 6.51695 9.8273 7.87612C4.56361 10.9219 1.36338 15.228 2.67313 17.5015C3.98287 19.775 9.31452 19.151 14.572 16.1177C19.8296 13.0842 23.036 8.77194 21.7262 6.49842Z" fill="#0C75BC"/>
<path d="M17.97 6.49225C18.5807 6.49225 19.0759 5.99714 19.0759 5.38638C19.0759 4.77563 18.5807 4.28052 17.97 4.28052C17.3592 4.28052 16.8641 4.77563 16.8641 5.38638C16.8641 5.99714 17.3592 6.49225 17.97 6.49225Z" fill="#0C75BC"/>
<circle cx="12" cy="12" r="3" fill="#FFE131"/>
<path d="M12.1061 11.2998L11.5996 12.6998H11.0275L10.772 11.9518L10.5029 12.6998H9.93083L9.42432 11.2998H9.97379L10.2497 12.0958L10.5414 11.2998H11.032L11.3079 12.1058L11.5996 11.2998H12.1061Z" fill="#8D611F"/>
<path d="M12.2246 11.2998H12.7583V12.6998H12.2246V11.2998Z" fill="#8D611F"/>
<path d="M14.5754 11.2998V12.6998H14.1367L13.5353 12.0638V12.6998H13.0152V11.2998H13.4539L14.0553 11.9358V11.2998H14.5754Z" fill="#8D611F"/>
</svg>
