<svg width="24" height="24" viewBox="0 0 24 24" fill="none" xmlns="http://www.w3.org/2000/svg">
<path d="M8.8626 17.5438C3.68964 9.66335 4.11979 6.38876 4.57242 5.31698C2.97274 7.09388 2 9.44899 2 12.0325C2 17.1799 5.86566 21.422 10.8418 21.9973C10.8418 20.7958 9.87189 19.1289 8.8626 17.5438Z" fill="#1E91FB"/>
<path d="M12.0001 17.9414C17.7774 10.2753 18.9639 5.80202 19.1382 5.00946C17.3249 3.15358 14.7974 2 12.0001 2C9.20274 2 6.6753 3.15358 4.86196 5.00946C5.03627 5.80202 6.22267 10.2753 12.0001 17.9414Z" fill="#1E91FB"/>
<path d="M19.4277 5.31698C19.8748 6.37748 20.3021 9.59284 15.3034 17.2928C15.2978 17.3012 15.2921 17.3097 15.2866 17.3209C14.2294 18.9738 13.164 20.7422 13.164 22.0002C18.1401 21.422 22.0002 17.1828 22.0002 12.0354C22.0002 9.44899 21.0246 7.09388 19.4277 5.31698Z" fill="#1E91FB"/>
</svg>
