<svg width="24" height="24" viewBox="0 0 24 24" fill="none" xmlns="http://www.w3.org/2000/svg">
<path d="M20.695 3.86543C20.695 2.71751 17.0998 4.69233 15.9103 5.11918C15.5527 3.74716 12.3685 5.31149 11.6314 5.55395C10.6796 1.28714 4.09743 3.48127 2.45191 6.12709C0.288131 9.60578 0.520645 14.8126 4.38051 17.0009C6.65312 18.2897 9.0054 17.1935 11.1204 16.2188C11.3642 17.2927 11.4106 19.6928 12.3189 20.4821C13.6458 21.6271 16.3545 19.4176 17.7664 18.8551C18.0428 20.9254 21.7987 18.0134 22.6302 17.6049C24.0958 16.8867 20.695 5.41113 20.695 3.86543Z" fill="#173A7A" fill-opacity="0.996"/>
<path d="M6.98551 10.1624H6.95898C7.05907 10.8473 7.17719 11.5263 7.31392 12.1998C7.47438 11.9197 8.14752 10.9375 8.14752 10.9375C8.14752 10.9375 7.19559 10.3336 6.98551 10.1624Z" fill="#FDE5A3"/>
<path d="M10.5218 10.1096V10.1359C10.7103 11.8441 10.4233 13.7294 8.51607 14.5167V15.7571C10.6121 15.0697 11.7252 13.1045 12.2105 11.0531C12.2047 10.1776 11.2633 10.3416 10.5218 10.1096ZM10.1526 5.80835C10.1437 5.80839 10.1348 5.8093 10.1261 5.81108C9.62003 5.90536 8.79358 5.88687 8.29225 5.88539C8.41612 6.44759 8.78541 7.19717 8.89889 7.76102H8.88549C9.06386 7.87829 10.0817 5.93307 10.1526 5.80835Z" fill="#FBB215"/>
<path d="M11.3929 8.79021V8.55286C11.3839 8.55286 11.3784 8.5545 11.3765 8.55805C11.098 9.07002 10.813 9.57848 10.5217 10.0833V10.1096C10.8499 10.2124 11.1671 10.3256 11.473 10.4486C11.4812 10.4514 11.4894 10.4528 11.4982 10.4528C11.4982 10.4439 11.4972 10.4351 11.4955 10.4265C11.4483 10.1822 11.414 9.93556 11.3926 9.68765V9.47628H11.3795C11.3706 9.24761 11.366 9.01878 11.3659 8.78993H11.3926L11.3929 8.79021Z" fill="#FEC40C"/>
<path d="M8.06762 10.9277C8.06783 10.9355 8.06595 10.9433 8.06215 10.9501C7.80045 11.3685 7.5471 11.7921 7.30225 12.2205C7.30225 12.2296 7.30443 12.2364 7.30881 12.2408C7.31283 12.2444 7.31792 12.2466 7.3233 12.2471H7.32877C8.09988 11.9189 8.87373 11.5979 9.65086 11.284V11.3236C9.90403 10.9149 10.1797 10.5205 10.4767 10.1424C10.4805 10.1383 10.4865 10.1358 10.4953 10.1358V10.1227C9.6886 10.3893 8.8792 10.6575 8.06762 10.9277Z" fill="#FEC40C"/>
<path d="M6.9856 10.1623C7.19663 10.3343 8.06734 10.9277 8.06734 10.9277C8.87947 10.6575 9.68887 10.3893 10.4953 10.1227C10.0999 10.6132 9.81766 11.0051 9.64949 11.2971C9.64949 12.287 8.91094 13.1291 7.98832 13.3818C8.09561 13.6234 8.51607 14.5166 8.51607 14.5166C11.6107 13.2309 11.0216 11.2971 10.5218 10.083C10.6122 9.92636 11.4956 8.49103 11.3665 8.47351C11.0419 8.57469 10.7211 8.68707 10.4045 8.81121C10.039 8.95398 6.9856 10.1623 6.9856 10.1623Z" fill="#FDE5A3"/>
<path d="M8.51617 14.5166C8.34472 14.1709 8.17738 13.7679 8.01796 13.4083C8.00921 13.4083 7.99608 13.3801 7.9887 13.3818C3.5809 14.3846 5.6616 5.47574 8.8856 7.76085H8.89927C8.78542 7.19688 8.66656 6.63392 8.5427 6.07206C2.44388 5.16035 2.64977 16.6353 8.51617 14.5166Z" fill="#FEC40C"/>
<path d="M10.1656 5.80791C8.74696 3.94819 5.53265 4.6352 4.27013 6.23148C1.50748 9.72029 2.63136 17.7713 8.51235 15.7714C8.51508 15.7706 8.51617 14.5959 8.51617 14.5166C2.64977 16.6353 2.44388 5.16035 8.5427 6.07206L10.1656 5.80791Z" fill="#FDE5A3"/>
<path d="M18.5389 18.475V18.5105C19.5378 18.0647 21.9852 17.0041 21.9575 16.9992C21.9518 16.9992 20.5848 16.8021 19.9775 16.699C19.4516 17.2308 19.0218 17.9011 18.5389 18.475ZM14.8269 17.8179C14.8269 17.8179 13.6701 19.2552 13.4236 19.5584V19.5762C14.539 19.0675 15.6625 18.5734 16.7629 18.0309C16.757 18.0309 16.7512 18.0306 16.7454 18.0301C16.1047 17.9609 15.4654 17.8898 14.8269 17.8179Z" fill="#FBB215"/>
<path d="M18.8467 11.4786C18.8467 11.4786 15.5532 12.8647 13.9497 13.4918C13.9475 13.4939 15.8025 14.4568 15.8025 14.4374C16.0899 14.3222 17.4912 13.6915 17.4912 13.6798C17.6186 13.4762 18.8467 11.4786 18.8467 11.4786Z" fill="#FBB215"/>
<path d="M16.9403 11.0687L15.284 11.7231C15.0191 12.0853 14.0098 13.055 14.0098 13.4841C15.5904 12.8596 16.9239 12.3403 18.7518 11.5486C18.7518 11.4559 17.115 11.1131 16.9403 11.0687Z" fill="#FDE5A3"/>
<path d="M15.8055 14.4221C15.2151 14.0935 14.6099 13.7924 13.9917 13.5198C14.1519 14.4099 14.3247 15.2978 14.5099 16.1831C14.6234 16.7266 14.729 17.2716 14.8268 17.8181C15.4653 17.8902 16.1043 17.9611 16.745 18.0302C16.7509 18.0308 16.7569 18.0311 16.7628 18.0311C16.6919 17.6641 16.6057 17.3003 16.5044 16.9406C16.2695 16.1042 16.0419 15.2658 15.8216 14.4254C15.8159 14.4257 15.8103 14.4245 15.8052 14.4221H15.8055Z" fill="#FEC40C"/>
<path d="M15.9095 6.02759C16.2634 7.7045 16.5725 9.39471 16.9407 11.0686C17.1146 11.1127 18.7522 11.5482 18.7522 11.5482C18.7747 11.5482 17.6182 13.477 17.4914 13.6797V13.6975C17.8249 15.322 18.1536 16.9488 18.5302 18.5197L18.5389 18.5109V18.4754C19.0242 17.8987 19.4983 17.3127 19.9609 16.7177C19.9662 16.7112 19.9719 16.705 19.9778 16.6991C19.2115 13.2789 17.8638 6.41536 17.8638 6.41536C17.2163 6.30793 16.5105 6.20396 15.9095 6.02759ZM10.7419 7.108C11.5818 11.2655 12.3741 15.4651 13.4239 19.5763V19.5588C13.8915 18.9834 14.3574 18.4081 14.8226 17.8322C14.8257 17.8281 14.8272 17.8229 14.8269 17.8177C14.2093 14.3575 13.4067 10.9416 12.7846 7.48098C12.4671 7.423 10.9267 6.92369 10.7419 7.108Z" fill="#FDE5A3"/>
<path d="M17.8637 6.41523C17.8637 6.41523 19.2112 13.2786 19.9777 16.6989C20.585 16.802 21.9579 17.0052 21.9577 16.9992L19.6227 4.69226C18.9757 5.15604 18.4352 5.84414 17.8642 6.39773L17.8637 6.41523ZM14.4538 5.75815C14.4538 5.75815 13.341 6.90548 12.7844 7.46335V7.48085C13.5644 11.8197 13.9973 13.5615 13.9973 13.5615C13.9973 13.5615 15.0291 12.0717 15.284 11.7231C15.0301 9.85374 14.4538 5.75815 14.4538 5.75815Z" fill="#FEC40C"/>
<path d="M17.8637 6.39773C18.4019 5.87602 18.937 5.351 19.4688 4.82269C19.5161 4.77566 19.5672 4.73246 19.6225 4.69226C18.3743 5.10497 17.1494 5.58616 15.9102 6.02448C16.5089 6.28185 17.2283 6.30959 17.8639 6.41523L17.8637 6.39773ZM14.4538 5.75787C13.2305 6.1977 12.0073 6.65609 10.7773 7.0901C11.4268 7.23393 12.0899 7.36354 12.7667 7.47893C12.7724 7.48013 12.7783 7.48077 12.7842 7.48085V7.46335C13.341 6.90517 13.9497 6.36471 14.4538 5.75787Z" fill="#FDE5A3"/>
</svg>
