<svg width="24" height="24" viewBox="0 0 24 24" fill="none" xmlns="http://www.w3.org/2000/svg">
<path d="M9.90068 7H9.06104V7.8397H9.90068V7Z" fill="#E06E1A"/>
<path d="M1.83972 8.00781H1V8.84755H1.83972V8.00781Z" fill="#571BE0"/>
<path d="M2.84754 16.0691H2.00781V16.9088H2.84754V16.0691Z" fill="#6DBCE3"/>
<path d="M7.88565 14.0537H7.0459V14.8934H7.88565V14.0537Z" fill="#C41FD6"/>
<path d="M13.9315 9.01514H13.0918V9.85488H13.9315V9.01514Z" fill="#C41F70"/>
<path d="M15.9467 7H15.1069V7.8397H15.9467V7Z" fill="#ECB733"/>
<path d="M14.9393 15.0613H14.0996V15.901H14.9393V15.0613Z" fill="#4F85E1"/>
<path d="M20.9852 16.0691H20.1455V16.9088H20.9852V16.0691Z" fill="#DD4C12"/>
<path d="M22.9998 14.0537H22.1602V14.8934H22.9998V14.0537Z" fill="#DA1F2C"/>
<path d="M22.9998 11.0308H22.1602V11.8705H22.9998V11.0308Z" fill="#82E493"/>
<path d="M13.0879 10.0189V14.8829H15.1097V16.8901H19.9738V15.9085H22.0249V13.8574H22.9918V12.0115H22.0249V11.0299H18.1424V12.8905H21.1165V14.0039H20.0763V15.0441H16.0034V14.0039H14.9486V9.93105H16.0913V8.89087H20.0763V9.93105H22.0249V7.87984H19.9738V6.94238H16.0913V8.02658H14.1135V10.0189H13.0879Z" fill="white"/>
<path fill-rule="evenodd" clip-rule="evenodd" d="M0.98877 16.9083H1.85132V15.9109H2.84907V14.8739H6.85785V13.9142H9.907V12.8617H10.8976V9.0078H9.907V7.9862H8.91641V6.99561H1.99778V9.0078H0.98877V16.9083ZM3.04085 13.0136V9.0078H8.01558V9.93974L9.06715 10.0409V12.0833H8.01558V13.0136H3.04085Z" fill="white"/>
</svg>
