<svg width="24" height="24" viewBox="0 0 24 24" fill="none" xmlns="http://www.w3.org/2000/svg">
<g clip-path="url(#clip0_1_14)">
<path d="M9.72768 11.9092V7.18931L13.7119 9.18141L11.4556 10.31V9.18141C11.4556 8.92997 11.2524 8.72678 11.001 8.72678C10.7495 8.72678 10.5464 8.92997 10.5464 9.18141V11.0448C10.5464 11.2031 10.6276 11.3488 10.7622 11.4317C10.8969 11.5147 11.0628 11.5223 11.2042 11.452L14.9319 9.58864C15.0859 9.51159 15.1833 9.35497 15.1833 9.18226C15.1833 9.00955 15.0859 8.85292 14.9319 8.77588L9.47708 6.04807C9.33569 5.9778 9.16891 5.98457 9.03514 6.06839C8.90053 6.15136 8.81925 6.29698 8.81925 6.45529V11.9092C8.81925 12.1607 9.02244 12.3639 9.27389 12.3639C9.52533 12.3639 9.72852 12.1607 9.72852 11.9092H9.72768Z" fill="#FF002A"/>
<path d="M2.75575 15.5828C2.70411 15.4617 2.61944 15.3593 2.51192 15.2865C2.45859 15.2501 2.39848 15.2213 2.33498 15.2018C2.27148 15.1823 2.20375 15.1713 2.13433 15.1713H0.281078C0.207422 15.1713 0.134612 15.201 0.082122 15.2534C0.0296315 15.3059 0 15.3779 0 15.4524V17.6985C0 17.8534 0.1253 17.9796 0.281078 17.9796C0.436856 17.9796 0.562156 17.8543 0.562156 17.6985V17.0432H2.13433C2.22661 17.0432 2.31635 17.0246 2.39678 16.9899C2.51785 16.9382 2.62029 16.8536 2.6931 16.746C2.7295 16.6927 2.75829 16.6326 2.77776 16.5691C2.79723 16.5056 2.80824 16.4379 2.80824 16.3684V15.8444C2.80824 15.7521 2.78961 15.6624 2.7549 15.5819L2.75575 15.5828ZM2.24693 16.3693C2.24693 16.3854 2.24354 16.3998 2.23846 16.4133C2.23 16.4328 2.21561 16.4506 2.19783 16.4633C2.18851 16.4692 2.1792 16.4743 2.16904 16.4777C2.15888 16.481 2.14788 16.4827 2.13518 16.4827H0.563002V15.7343H2.13518C2.15126 15.7343 2.16566 15.7377 2.1792 15.7428C2.19867 15.7513 2.21645 15.7657 2.22915 15.7834C2.23508 15.7927 2.24016 15.8021 2.24354 15.8122C2.24693 15.8224 2.24862 15.8334 2.24862 15.8461V16.3701L2.24693 16.3693Z" fill="white"/>
<path d="M16.195 16.4099C16.1417 16.3735 16.0816 16.3447 16.0181 16.3252C15.9546 16.3057 15.8868 16.2947 15.8174 16.2947H14.1699C14.1538 16.2947 14.1394 16.2913 14.1259 16.2863C14.1064 16.2778 14.0886 16.2634 14.0759 16.2456C14.07 16.2363 14.0649 16.227 14.0615 16.2168C14.0581 16.2067 14.0564 16.1957 14.0564 16.183V15.846C14.0564 15.8299 14.0598 15.8155 14.0649 15.802C14.0734 15.7825 14.0878 15.7647 14.1055 15.752C14.1149 15.7461 14.1242 15.741 14.1343 15.7376C14.1445 15.7343 14.1555 15.7326 14.1682 15.7326H16.1146C16.2695 15.7326 16.3957 15.6073 16.3957 15.4515C16.3957 15.2957 16.2704 15.1704 16.1146 15.1704H14.1682C14.0759 15.1704 13.9862 15.189 13.9057 15.2237C13.7847 15.2754 13.6822 15.3601 13.6094 15.4676C13.573 15.5209 13.5442 15.581 13.5248 15.6445C13.5053 15.708 13.4943 15.7757 13.4943 15.8452V16.1821C13.4943 16.2744 13.5129 16.3641 13.5476 16.4446C13.5993 16.5656 13.6839 16.6681 13.7915 16.7409C13.8448 16.7773 13.9049 16.8061 13.9684 16.8256C14.0319 16.845 14.0996 16.856 14.169 16.856H15.8166C15.8327 16.856 15.847 16.8594 15.8606 16.8645C15.8801 16.873 15.8978 16.8874 15.9105 16.9051C15.9165 16.9144 15.9215 16.9238 15.9249 16.9339C15.9283 16.9441 15.93 16.9551 15.93 16.9678V17.3047C15.93 17.3208 15.9266 17.3352 15.9215 17.3488C15.9131 17.3682 15.8987 17.386 15.8809 17.3987C15.8716 17.4046 15.8623 17.4097 15.8521 17.4131C15.842 17.4165 15.831 17.4182 15.8183 17.4182H13.8719C13.7169 17.4182 13.5908 17.5435 13.5908 17.6993C13.5908 17.855 13.7161 17.9803 13.8719 17.9803H15.8183C15.9105 17.9803 16.0003 17.9617 16.0807 17.927C16.2018 17.8754 16.3042 17.7907 16.377 17.6832C16.4134 17.6298 16.4422 17.5697 16.4617 17.5062C16.4812 17.4427 16.4922 17.375 16.4922 17.3056V16.9686C16.4922 16.8763 16.4735 16.7866 16.4388 16.7062C16.3872 16.5851 16.3025 16.4827 16.195 16.4099Z" fill="white"/>
<path d="M12.8204 15.2407C12.7035 15.1382 12.5266 15.1501 12.4242 15.2669L11.3252 16.5225L10.2263 15.2669C10.1239 15.1501 9.94694 15.1382 9.83011 15.2407C9.71328 15.3431 9.70142 15.5201 9.80386 15.6369L11.045 17.055V17.6984C11.045 17.8534 11.1703 17.9795 11.3261 17.9795C11.4819 17.9795 11.6072 17.8542 11.6072 17.6984V17.055L12.8483 15.6369C12.9508 15.5201 12.9389 15.3431 12.8221 15.2407H12.8204Z" fill="white"/>
<path d="M20.1733 15.5827C20.1216 15.4617 20.037 15.3592 19.9294 15.2864C19.8761 15.25 19.816 15.2212 19.7525 15.2017C19.689 15.1823 19.6213 15.1713 19.5519 15.1713H17.9043C17.8121 15.1713 17.7223 15.1899 17.6419 15.2246C17.5208 15.2762 17.4184 15.3609 17.3456 15.4684C17.3092 15.5218 17.2804 15.5819 17.2609 15.6454C17.2414 15.7089 17.2304 15.7766 17.2304 15.846V17.3064C17.2304 17.3987 17.249 17.4885 17.2838 17.5689C17.3354 17.69 17.4201 17.7924 17.5276 17.8652C17.5809 17.9016 17.641 17.9304 17.7045 17.9499C17.768 17.9693 17.8358 17.9804 17.9052 17.9804H19.5527C19.645 17.9804 19.7347 17.9617 19.8152 17.927C19.9362 17.8754 20.0387 17.7907 20.1115 17.6832C20.1479 17.6299 20.1767 17.5697 20.1961 17.5062C20.2156 17.4427 20.2266 17.375 20.2266 17.3056V15.8452C20.2266 15.7529 20.208 15.6632 20.1733 15.5827ZM19.6645 17.3047C19.6645 17.3208 19.6611 17.3352 19.656 17.3488C19.6475 17.3682 19.6331 17.386 19.6154 17.3987C19.606 17.4046 19.5967 17.4097 19.5866 17.4131C19.5764 17.4165 19.5654 17.4182 19.5527 17.4182H17.9052C17.8891 17.4182 17.8747 17.4148 17.8612 17.4097C17.8417 17.4013 17.8239 17.3869 17.8112 17.3691C17.8053 17.3598 17.8002 17.3505 17.7968 17.3403C17.7934 17.3301 17.7917 17.3191 17.7917 17.3064V15.846C17.7917 15.8299 17.7951 15.8155 17.8002 15.802C17.8087 15.7825 17.8231 15.7647 17.8408 15.752C17.8501 15.7461 17.8595 15.741 17.8696 15.7377C17.8798 15.7343 17.8908 15.7326 17.9035 15.7326H19.551C19.5671 15.7326 19.5815 15.736 19.595 15.741C19.6145 15.7495 19.6323 15.7639 19.645 15.7817C19.6509 15.791 19.656 15.8003 19.6594 15.8105C19.6628 15.8206 19.6645 15.8316 19.6645 15.8443V17.3047Z" fill="white"/>
<path d="M23.7189 15.1713C23.564 15.1713 23.4378 15.2966 23.4378 15.4523V17.0575L21.4754 15.2466C21.3933 15.1704 21.2747 15.1509 21.1723 15.1958C21.0698 15.2407 21.0038 15.3414 21.0038 15.4532V17.6993C21.0038 17.8542 21.1291 17.9804 21.2849 17.9804C21.4407 17.9804 21.566 17.8551 21.566 17.6993V16.0941L23.5284 17.905C23.6106 17.9812 23.7291 18.0007 23.8315 17.9558C23.934 17.9109 24 17.8102 24 17.6984V15.4523C24 15.2974 23.8747 15.1713 23.7189 15.1713Z" fill="white"/>
<path d="M5.78496 17.4173H4.10018V15.4523C4.10018 15.2974 3.97488 15.1713 3.81911 15.1713C3.66333 15.1713 3.53803 15.2966 3.53803 15.4523V17.6984C3.53803 17.7721 3.56766 17.8449 3.62015 17.8965C3.67264 17.949 3.7446 17.9787 3.81911 17.9787H5.78411C5.93904 17.9787 6.06519 17.8534 6.06519 17.6976C6.06519 17.5418 5.93989 17.4165 5.78411 17.4165L5.78496 17.4173Z" fill="white"/>
<path d="M9.60406 17.9786C9.50754 17.9786 9.41357 17.9287 9.36108 17.839L8.29349 16.0086L7.2259 17.839C7.14801 17.9727 6.97615 18.0184 6.84153 17.9397C6.70777 17.8618 6.66205 17.6899 6.74079 17.5553L8.05136 15.3092C8.10131 15.2229 8.19443 15.1696 8.29349 15.1696C8.39254 15.1696 8.48567 15.2229 8.53562 15.3092L9.84619 17.5553C9.92408 17.6891 9.87921 17.861 9.74544 17.9397C9.70057 17.9659 9.65231 17.9778 9.60406 17.9778V17.9786Z" fill="white"/>
</g>
<defs>
<clipPath id="clip0_1_14">
<rect width="24" height="24" fill="white"/>
</clipPath>
</defs>
</svg>
