<svg width="24" height="24" viewBox="0 0 24 24" fill="none" xmlns="http://www.w3.org/2000/svg">
<path d="M21.7634 7.78202C20.6899 5.08659 16.228 4.50122 11.391 6.24374L9.24409 4.86878C8.57154 4.47399 7.80845 4.95047 7.78263 5.74004V7.95902C3.61814 10.5047 1.21257 14.1667 2.23429 16.7397C3.42414 19.721 8.76554 20.1295 14.1457 17.6518C19.5389 15.1877 22.9533 10.7634 21.7634 7.78202ZM9.89073 6.59769L15.0123 9.89211C15.3874 10.1236 15.4391 10.7226 15.0381 10.9948L9.85191 14.2212C9.451 14.4527 8.90782 14.1804 8.90782 13.595L8.88191 7.19668C8.92073 6.65214 9.43809 6.33903 9.89073 6.59769ZM7.18769 18.6047C4.84679 18.4277 3.90267 16.8486 4.52346 14.6977C4.52346 15.0517 4.57519 15.3919 4.70453 15.7187C5.62278 18.0194 9.73554 18.3325 13.8871 16.413C13.9776 16.3721 14.0552 16.3313 14.1457 16.2905C11.8048 17.8424 9.20527 18.7681 7.18769 18.6047ZM16.9005 12.7918C14.8183 15.4873 11.0676 17.3523 8.51982 17.1617C5.97197 16.9711 5.58398 14.616 7.66618 11.9206C7.705 11.8661 7.75673 11.8117 7.79554 11.7572L7.80845 15.1333C7.79554 15.9909 8.61036 16.3994 9.19236 16.059L16.8358 11.3079C17.4307 10.9131 17.3661 10.0283 16.81 9.68793L13.7189 7.86375C14.5596 7.60511 15.3615 7.48257 16.0728 7.53702C18.5947 7.7412 18.9827 10.0827 16.9005 12.7918ZM19.7846 8.89838C19.7716 8.87111 19.7716 8.84393 19.7587 8.80302C19.0215 6.95164 16.2151 6.39348 12.9688 7.23752L12.4385 6.89718C14.0294 6.18928 15.6201 5.82172 16.9523 5.93063C18.931 6.09399 19.901 7.25113 19.7846 8.89838Z" fill="#00C3EE"/>
</svg>
