<svg width="24" height="24" viewBox="0 0 24 24" fill="none" xmlns="http://www.w3.org/2000/svg">
<path fill-rule="evenodd" clip-rule="evenodd" d="M7.97427 5.21997C6.44169 3.789 4.84597 3.3641 4.85597 3.39148C5.81256 4.29007 7.06329 5.61528 7.62568 6.95111C8.87081 6.12975 10.2459 5.96089 11.3673 5.81538C10.9948 3.88263 11.2423 2.40077 11.6107 1.31843C10.7609 1.66188 10.2782 4.03673 10.1094 4.60628C9.55181 3.39148 8.26911 0.993163 7.52085 0C7.52085 1.74629 7.62568 3.62107 7.97427 5.21997ZM6.44169 8.89842C4.95304 10.3877 4.14659 12.4111 4.19974 14.5125C4.25842 16.8305 5.38291 19.041 7.23287 20.4419C10.0222 22.5543 13.9949 22.4783 16.7186 20.3077C19.1263 18.3888 20.1468 14.908 19.2253 11.9725C17.4906 6.56078 10.3554 4.98321 6.44169 8.89842ZM8.81272 8.17968C3.22144 10.9824 4.13962 19.5225 10.2912 20.9885C12.5779 21.5335 15.0466 20.8478 16.7204 19.192C19.2103 16.729 19.4233 12.7374 17.2491 10.0143C15.2747 7.5414 11.6438 6.76048 8.81272 8.17968ZM11.6201 10.061C11.9739 11.3353 13.5794 11.9105 14.77 11.554C18.7316 10.3673 10.618 6.45207 11.6201 10.061Z" fill="#ED8E23"/>
<path fill-rule="evenodd" clip-rule="evenodd" d="M7.97427 5.21997C6.44169 3.789 4.84597 3.3641 4.85597 3.39148C5.81256 4.29007 7.06329 5.61528 7.62568 6.95111C8.87081 6.12975 10.2459 5.96089 11.3673 5.81538C10.9948 3.88263 11.2423 2.40077 11.6107 1.31843C10.7609 1.66188 10.2782 4.03673 10.1094 4.60628C9.55181 3.39148 8.26911 0.993163 7.52085 0C7.52085 1.74629 7.62568 3.62107 7.97427 5.21997ZM6.44169 8.89842C4.95304 10.3877 4.14659 12.4111 4.19974 14.5125C4.25842 16.8305 5.38291 19.041 7.23287 20.4419C10.0222 22.5543 13.9949 22.4783 16.7186 20.3077C19.1263 18.3888 20.1468 14.908 19.2253 11.9725C17.4906 6.56078 10.3554 4.98321 6.44169 8.89842ZM8.81272 8.17968C3.22144 10.9824 4.13962 19.5225 10.2912 20.9885C12.5779 21.5335 15.0466 20.8478 16.7204 19.192C19.2103 16.729 19.4233 12.7374 17.2491 10.0143C15.2747 7.5414 11.6438 6.76048 8.81272 8.17968ZM11.6201 10.061C11.9739 11.3353 13.5794 11.9105 14.77 11.554C18.7316 10.3673 10.618 6.45207 11.6201 10.061Z" fill="#ED8E23"/>
<path d="M9.35467 16.6512C9.35467 16.6512 9.3314 13.3089 9.3314 12.5253C9.44907 12.5253 9.92605 12.4567 9.99521 12.5301C9.99521 12.5301 10.016 15.4714 10.0197 16.1413L11.4231 16.1514L11.418 16.6514C11.3973 16.6848 9.38809 16.6846 9.35467 16.6512Z" fill="white"/>
<path d="M9.35467 16.6512C9.35467 16.6512 9.3314 13.3089 9.3314 12.5253C9.44907 12.5253 9.92605 12.4567 9.99521 12.5301C9.99521 12.5301 10.016 15.4714 10.0197 16.1413L11.4231 16.1514L11.418 16.6514C11.3973 16.6848 9.38809 16.6846 9.35467 16.6512Z" fill="white"/>
<path d="M14.799 12.5462C14.799 12.5104 15.4749 12.5337 15.5649 12.535C15.8938 13.1891 16.5182 14.4007 16.525 14.3939L17.4686 12.5495C17.5158 12.5147 18.2114 12.5148 18.2114 12.5497L16.8639 15.1498L16.8445 16.6648H16.5149H16.1853L16.1659 15.1657C15.711 14.2922 15.2549 13.4192 14.799 12.5462Z" fill="white"/>
<path d="M14.799 12.5462C14.799 12.5104 15.4749 12.5337 15.5649 12.535C15.8938 13.1891 16.5182 14.4007 16.525 14.3939L17.4686 12.5495C17.5158 12.5147 18.2114 12.5148 18.2114 12.5497L16.8639 15.1498L16.8445 16.6648H16.5149H16.1853L16.1659 15.1657C15.711 14.2922 15.2549 13.4192 14.799 12.5462Z" fill="white"/>
<path fill-rule="evenodd" clip-rule="evenodd" d="M6.00588 12.5484C6.00588 12.5484 6.00341 15.5124 6.00623 16.6648C6.12109 16.6667 6.60325 16.7382 6.65886 16.6507C6.65886 16.6507 6.675 15.4542 6.67514 15.0853L6.71877 15.0759C7.50204 14.9075 8.4077 15.276 8.77961 14.2702C9.03275 13.5859 8.65496 12.7746 7.9451 12.5792C7.69861 12.5114 6.06719 12.3875 6.00588 12.5484ZM6.68969 13.0988C6.68969 13.0988 8.42731 12.9274 8.20946 13.8591C7.99162 14.7908 7.19898 14.5168 6.67514 14.4972L6.68969 13.0988Z" fill="white"/>
<path fill-rule="evenodd" clip-rule="evenodd" d="M6.00588 12.5484C6.00588 12.5484 6.00341 15.5124 6.00623 16.6648C6.12109 16.6667 6.60325 16.7382 6.65886 16.6507C6.65886 16.6507 6.675 15.4542 6.67514 15.0853L6.71877 15.0759C7.50204 14.9075 8.4077 15.276 8.77961 14.2702C9.03275 13.5859 8.65496 12.7746 7.9451 12.5792C7.69861 12.5114 6.06719 12.3875 6.00588 12.5484ZM6.68969 13.0988C6.68969 13.0988 8.42731 12.9274 8.20946 13.8591C7.99162 14.7908 7.19898 14.5168 6.67514 14.4972L6.68969 13.0988Z" fill="white"/>
<path fill-rule="evenodd" clip-rule="evenodd" d="M13.2406 12.5989C13.229 12.6178 11.7162 16.6535 11.7162 16.6658C11.7162 16.6658 12.3773 16.7101 12.4375 16.6405C12.4375 16.6405 12.6564 16.0399 12.7612 15.7826C13.0505 15.7826 14.4068 15.6318 14.5074 15.8198C14.6381 16.0642 14.6435 16.4347 14.8205 16.6479C14.8907 16.7325 15.5256 16.6616 15.5198 16.626L14.0191 12.6077C13.9965 12.58 13.2575 12.5717 13.2406 12.5989ZM12.9841 15.2058C13.0792 14.8894 13.6323 13.3687 13.6366 13.3738C13.6488 13.3884 14.2949 15.2089 14.2949 15.2287C14.2949 15.2592 12.9753 15.2348 12.9841 15.2058Z" fill="white"/>
<path fill-rule="evenodd" clip-rule="evenodd" d="M13.2406 12.5989C13.229 12.6178 11.7162 16.6535 11.7162 16.6658C11.7162 16.6658 12.3773 16.7101 12.4375 16.6405C12.4375 16.6405 12.6564 16.0399 12.7612 15.7826C13.0505 15.7826 14.4068 15.6318 14.5074 15.8198C14.6381 16.0642 14.6435 16.4347 14.8205 16.6479C14.8907 16.7325 15.5256 16.6616 15.5198 16.626L14.0191 12.6077C13.9965 12.58 13.2575 12.5717 13.2406 12.5989ZM12.9841 15.2058C13.0792 14.8894 13.6323 13.3687 13.6366 13.3738C13.6488 13.3884 14.2949 15.2089 14.2949 15.2287C14.2949 15.2592 12.9753 15.2348 12.9841 15.2058Z" fill="white"/>
</svg>
