<svg width="24" height="24" viewBox="0 0 24 24" fill="none" xmlns="http://www.w3.org/2000/svg">
<path d="M12 22C17.5231 22 22 17.5227 22 12C22 6.47725 17.5231 2 12 2C6.47692 2 2 6.47725 2 12C2 17.5227 6.47692 22 12 22Z" fill="#D60B0B"/>
<path fill-rule="evenodd" clip-rule="evenodd" d="M11.2626 15.9832H12.5908C12.6421 15.9832 12.6839 15.9425 12.6839 15.8922V9.90674H13.6118C14.2344 8.79424 15.3457 8.37549 15.3457 8.37549H8.89876C8.89876 8.37549 9.86338 8.67474 10.2175 9.90674H11.1698V15.8922C11.1698 15.9425 11.2113 15.9832 11.2626 15.9832Z" fill="white"/>
<path fill-rule="evenodd" clip-rule="evenodd" d="M18.5934 10.433L19.2285 9.23675C19.2285 9.23675 18.3737 8.3995 16.8595 8.3995C14.6619 8.3995 13.4408 10.098 13.3675 12.323C13.2967 14.5 14.8085 16.055 16.7375 16.079C18.6667 16.1027 19.5213 15.1697 19.5213 15.1697V11.8062C19.5242 11.4524 17.4855 11.6369 17.2137 11.6315C16.8541 11.6213 17.0603 12.7439 17.0575 12.9067C17.0447 13.3107 17.7957 12.9112 17.9679 13.0797C17.993 13.1043 18.0072 13.1375 18.0075 13.1722V14.4282C18.0075 14.4282 15.0134 15.72 14.9549 12.1075C14.9306 10.6 16.0049 9.83474 16.9329 9.78675C17.7972 9.7415 18.5934 10.433 18.5934 10.433Z" fill="white"/>
<path d="M12.0026 2.07422C6.52031 2.07422 2.07544 6.51672 2.07544 12C2.07544 17.4832 6.52006 21.9257 12.0024 21.9257C17.4844 21.9257 21.929 17.4832 21.929 12C21.9293 6.51672 17.4849 2.07422 12.0026 2.07422ZM12.0026 2.64822C17.167 2.64822 21.3529 6.83497 21.3529 12C21.3529 13.8205 20.8329 15.5192 19.9342 16.957C19.5654 17.1627 18.3321 17.701 15.5265 17.6627C12.1808 17.6172 11.1747 16.866 8.07339 16.866C6.29057 16.866 4.81082 17.335 4.41775 17.4712C3.30647 15.933 2.65211 14.043 2.65211 12C2.65211 6.83497 6.83775 2.64822 12.0026 2.64822ZM7.70954 17.8875C9.30185 17.8875 13.1062 19.6842 16.657 20.115C15.8143 20.5996 14.8976 20.95 13.9416 21.153C9.79698 18.6292 8.06852 17.8875 7.70954 17.8875ZM10.8326 21.28C9.12339 21.067 7.55826 20.3925 6.2639 19.3827C6.65929 19.3397 7.83877 19.5527 8.68134 19.9545C9.34313 20.268 10.1124 20.6962 10.8326 21.28ZM17.9634 19.208C15.4019 19.3875 11.7313 17.8565 9.43108 17.555C11.9388 17.39 16.2954 18.7057 19.5703 17.4975C19.1088 18.1298 18.5691 18.7043 17.9634 19.208Z" fill="white"/>
<path d="M9.20387 11.725C9.66798 11.366 9.92439 11.091 9.92439 10.2535C9.92439 9.34449 9.0208 8.37549 7.34798 8.37549C5.32105 8.37549 4.78387 9.66749 4.78387 9.66749V15.2175C4.78387 15.2175 5.78516 15.9832 7.25054 15.9832C8.10746 15.9832 10.4126 16.0072 10.4126 13.5072C10.4126 12.4785 9.619 12.06 9.20387 11.725ZM6.49336 10.409C6.49336 10.409 6.70105 9.82299 7.32362 9.81099C7.81208 9.80149 8.22721 10.122 8.22721 10.5047C8.22721 10.9355 7.89746 11.2465 7.58003 11.2465C7.36045 11.2465 6.68814 11.4063 6.52335 11.2413C6.39107 11.1089 6.4933 10.5857 6.49336 10.409ZM8.59336 13.9377C8.47131 14.847 6.85952 14.6077 6.54208 14.3852C6.52737 14.3764 6.51519 14.3641 6.50667 14.3495C6.30668 14.0057 6.49336 13.0351 6.49336 12.6315C6.49336 12.579 6.53721 12.5357 6.5908 12.5357C6.5908 12.5357 8.05618 12.3445 8.49593 12.9545C8.63746 13.153 8.64464 13.5575 8.59336 13.9377Z" fill="white"/>
<path fill-rule="evenodd" clip-rule="evenodd" d="M12.0488 2.8015L12.6744 4.4375L14.4544 4.514L13.0577 5.60025L13.5362 7.282L12.049 6.318L10.5644 7.282L11.0406 5.60025L9.6439 4.514L11.4265 4.4375L12.0488 2.8015ZM7.7339 5.06925L8.13672 5.81575L8.99646 5.74175L8.398 6.34675L8.73518 7.12425L7.96082 6.7535L7.30903 7.3085L7.43108 6.4735L6.69108 6.0385L7.53852 5.89225L7.7339 5.06925ZM16.4275 5.06925L16.0221 5.81575L15.1649 5.74175L15.7631 6.34675L15.4262 7.12425L16.2003 6.7535L16.8498 7.3085L16.7303 6.4735L17.4701 6.0385L16.6203 5.89225L16.4275 5.06925Z" fill="white"/>
</svg>
