<svg width="24" height="24" viewBox="0 0 24 24" fill="none" xmlns="http://www.w3.org/2000/svg">
<path d="M20.4793 7.41117C20.5203 7.44471 20.5404 7.45918 20.5643 7.48116C20.5704 7.42796 20.5741 7.38575 20.582 7.31808C20.6902 7.46669 20.7856 7.59272 20.8785 7.72282C20.6865 7.23714 20.3454 6.82896 20.0648 6.40751C20.0532 6.42602 20.0434 6.44045 20.0281 6.46531C18.416 4.35584 19.2608 4.94871 20.3711 6.13C19.7762 4.87364 18.1916 4.41574 17.0776 3.61153C14.1565 1.81921 10.2303 1.35671 7.10193 3.07268C6.17011 3.58649 6.57211 3.33109 7.25417 3.33109C7.35311 3.33109 5.61783 4.36509 5.4555 4.47181C5.26353 4.60016 5.06606 4.73026 5.02326 4.70308C4.95051 4.64816 5.21706 4.43712 5.25008 4.39143C5.30266 4.31629 4.95968 4.52502 5.03916 4.44927C7.77097 1.88806 3.59687 6.29182 3.0088 7.47249C3.06994 7.46901 3.12129 7.46553 3.19893 7.45974C3.03631 7.79045 2.82906 8.07952 2.79788 8.43454C2.87552 8.38134 2.92015 8.30791 3.01063 8.28017C3.04793 8.39581 2.97762 8.50217 2.9495 8.61201C2.95804 8.61393 2.96642 8.61645 2.97456 8.61952C3.02103 8.50389 3.06749 8.38482 3.11212 8.26918C3.15125 8.27322 3.18182 8.27494 3.22095 8.27842C3.09317 9.15609 2.99413 10.0262 2.74224 10.8853L2.75386 10.8744C2.53682 11.5063 2.82172 12.1307 2.73674 12.8031C2.70988 12.8031 2.57786 14.6062 3.30348 15.8899C3.0991 15.2779 3.59375 16.2003 3.68864 16.3663C3.79869 16.5588 4.19058 17.2162 3.93319 16.8716C1.53027 13.6546 11.5671 29.0573 21.6495 15.0418C22.2535 13.0762 21.523 14.7053 21.5235 14.7007C21.5881 14.1966 22.2783 12.7475 21.7399 12.4129C21.6745 12.3724 21.6495 12.4643 21.6433 12.4643C21.6513 12.3816 21.6745 12.1088 21.6085 12.2405C21.5584 12.3377 21.7308 14.7486 20.8644 15.7801C20.7035 12.7672 22.1527 13.9029 19.6075 16.8884C19.4779 17.0405 19.7102 16.5149 19.8459 16.1617C19.9682 15.85 19.9443 15.7107 19.7181 16.1009C19.4528 16.5588 18.9606 17.1197 18.5565 17.4747C15.1919 20.4245 10.7101 21.0452 7.03591 18.313C6.94114 18.2396 7.13312 18.4286 7.12513 18.4338C5.05397 17.0736 2.94312 12.1682 4.72002 16.0651C4.16473 15.7026 4.56296 15.4457 4.51888 16.1125C4.13494 15.4661 3.83109 14.0704 3.73816 14.0704C3.64523 14.0704 3.73816 14.2919 3.74733 14.3965C3.52479 14.0791 3.38051 13.0754 3.46488 12.8193C3.52602 11.6722 3.71493 10.498 4.14106 9.41742C4.14022 9.41498 4.14022 9.41234 4.14106 9.4099C4.14106 9.40295 4.14656 9.39543 4.149 9.38792C4.51583 8.47039 5.04772 7.62046 5.81437 6.91686C5.80887 6.91338 5.80276 6.90762 5.79726 6.90415C5.66153 7.01978 5.52764 7.12962 5.39253 7.24122C6.20036 4.68667 9.445 3.72005 11.9329 4.17291C11.1822 3.91892 8.04064 3.95884 10.1856 3.84855C18.1821 3.45703 19.3898 12.6079 16.9633 6.38381C20.222 8.63255 19.0503 10.6472 18.1005 6.78675C19.6606 9.08206 18.1118 5.94216 19.7065 8.14603C19.753 8.21019 19.7896 8.21194 19.7298 8.12924C18.1097 5.9281 20.2203 8.6898 20.5404 9.51339C20.1956 8.2183 19.1954 7.19205 18.3866 6.12592C18.7968 6.43409 19.0799 6.84631 19.4259 7.20536C19.4326 7.19981 19.4397 7.19477 19.4473 7.19034C19.1557 6.6837 20.4266 8.95897 20.6425 9.45095C20.6933 9.56655 20.6077 9.21101 20.5496 8.96935C20.4915 8.72764 20.59 8.79588 20.5881 8.96179C20.5863 9.12775 20.8553 9.61571 20.6963 9.87416C20.6829 9.8539 20.6713 9.83367 20.648 9.7955C20.7776 10.1673 20.7294 10.5517 20.8828 10.894C20.9562 11.467 20.9152 12.0405 20.8828 12.61H20.9024C20.9256 12.4366 20.9507 12.2585 20.9739 12.0845H20.999V12.288C21.428 8.4277 23.2763 12.2046 20.4793 7.41117ZM19.3599 17.9435C19.2027 18.0534 19.185 18.0551 19.3788 17.8279C20.1258 16.9522 20.4105 16.8051 20.6945 15.802C20.7746 16.7977 19.8608 17.6984 19.2547 18.3575C19.0591 18.5702 19.6112 17.877 19.8123 17.6412C20.5764 16.7755 19.8106 17.6233 19.3599 17.9435ZM4.95051 16.5421C5.19506 17.178 6.21911 18.1488 6.71307 18.3957C5.90119 18.0661 5.2244 17.6122 5.1113 17.4018C5.03854 17.2671 5.15654 17.2931 5.26169 17.4105C5.35332 17.5239 5.46834 17.6185 5.59978 17.6886C5.1865 17.1885 5.00431 16.8601 4.95051 16.5421ZM8.15407 3.11489C7.90955 3.186 7.69311 3.25015 7.97617 3.10562C8.22989 2.97727 8.79174 2.78877 8.89322 2.88938C8.9947 2.98998 8.39376 3.04147 8.15166 3.11489H8.15407ZM18.0338 6.28204C17.7389 6.0212 18.006 6.15711 18.1775 6.36238C18.2069 6.39708 18.1335 6.36238 18.0338 6.28204Z" fill="#FF3333"/>
</svg>
