<svg width="24" height="24" viewBox="0 0 24 24" fill="none" xmlns="http://www.w3.org/2000/svg">
<path d="M13.212 9.9533C14.0558 9.9533 14.7399 9.26977 14.7399 8.4266C14.7399 7.58343 14.0558 6.8999 13.212 6.8999C12.3682 6.8999 11.6841 7.58343 11.6841 8.4266C11.6841 9.26977 12.3682 9.9533 13.212 9.9533Z" fill="white"/>
<path d="M22.6833 8.4269C22.686 8.72948 22.5988 9.02604 22.4327 9.27895C22.2666 9.53186 22.0291 9.72971 21.7503 9.8474C21.4713 9.96518 21.1637 9.99745 20.8664 9.94015C20.569 9.88284 20.2954 9.73852 20.0802 9.5255C19.8651 9.31264 19.7182 9.04062 19.6581 8.74404C19.598 8.44746 19.6274 8.13971 19.7427 7.8599C19.858 7.57999 20.0539 7.34064 20.3055 7.17223C20.557 7.00382 20.853 6.91395 21.1557 6.914C21.5583 6.91391 21.9446 7.07276 22.2307 7.35602C22.5168 7.63929 22.6794 8.02434 22.6833 8.4269Z" fill="white"/>
<path d="M13.212 17.3771C14.0558 17.3771 14.7399 16.6936 14.7399 15.8504C14.7399 15.0072 14.0558 14.3237 13.212 14.3237C12.3682 14.3237 11.6841 15.0072 11.6841 15.8504C11.6841 16.6936 12.3682 17.3771 13.212 17.3771Z" fill="white"/>
<path d="M22.6833 15.8504C22.6833 16.6934 21.9993 17.3774 21.1554 17.3774C20.9548 17.3775 20.7562 17.338 20.5708 17.2613C20.3855 17.1846 20.217 17.0722 20.0752 16.9304C19.9333 16.7886 19.8207 16.6202 19.7439 16.4349C19.6671 16.2496 19.6275 16.051 19.6275 15.8504C19.6275 15.0074 20.3115 14.3234 21.1554 14.3234C21.356 14.3233 21.5546 14.3628 21.74 14.4395C21.9253 14.5162 22.0938 14.6286 22.2356 14.7704C22.3775 14.9122 22.4901 15.0806 22.5669 15.2659C22.6437 15.4512 22.6833 15.6498 22.6833 15.8504ZM18.7101 12.1358C18.7088 12.4382 18.6178 12.7333 18.4487 12.9839C18.2795 13.2345 18.0397 13.4292 17.7597 13.5434C17.1867 13.7774 16.5297 13.6424 16.0947 13.2026C15.8822 12.9875 15.7384 12.7141 15.6816 12.4171C15.6248 12.1201 15.6574 11.813 15.7755 11.5346C15.8936 11.2562 16.0917 11.019 16.3447 10.8533C16.5977 10.6875 16.8942 10.6005 17.1966 10.6034C17.6002 10.607 17.986 10.7702 18.2696 11.0573C18.5533 11.3444 18.7115 11.7322 18.7101 12.1358Z" fill="white"/>
<path d="M10.7952 17.0054L8.3928 12.9359C9.6282 12.6749 10.4859 11.8178 10.4859 9.959C10.491 7.4819 8.841 6.8999 6.7569 6.8999H1.6989C1.6462 6.8999 1.59565 6.92082 1.55836 6.95805C1.52107 6.99529 1.50008 7.0458 1.5 7.0985V17.0621C1.5 17.1719 1.5891 17.2607 1.6989 17.2607H3.4824C3.50848 17.2607 3.53431 17.2556 3.5584 17.2456C3.5825 17.2356 3.60439 17.221 3.62283 17.2025C3.64127 17.1841 3.6559 17.1622 3.66588 17.1381C3.67586 17.114 3.681 17.0882 3.681 17.0621V13.163H6.2115L8.4381 17.1161C8.4942 17.2196 8.6043 17.2823 8.7222 17.2781H10.6647C10.7089 17.2773 10.7511 17.2594 10.7823 17.2281C10.8136 17.1968 10.8314 17.1546 10.8321 17.1104C10.8307 17.0725 10.8179 17.0359 10.7952 17.0054ZM6.771 11.3582H3.681V8.7503H6.771C7.9299 8.7503 8.2818 9.3176 8.2818 10.0328C8.2818 10.748 7.9299 11.3582 6.771 11.3582Z" fill="white"/>
</svg>
