<svg width="24" height="24" viewBox="0 0 24 24" fill="none" xmlns="http://www.w3.org/2000/svg">
<mask id="mask0_19_12741" style="mask-type:alpha" maskUnits="userSpaceOnUse" x="3" y="2" width="20" height="21">
<path d="M23 12.369C20.3013 17.899 9.92697 21.5167 5.07708 22.6342C4.42104 21.1595 3.08791 17.0419 3.00357 12.369C2.91923 7.69601 4.35077 3.50927 5.07708 2C13.174 2.30413 20.3994 9.03935 23 12.369Z" fill="#C4C4C4"/>
</mask>
<g mask="url(#mask0_19_12741)">
<path d="M2.26611 11.9191L9.18892 7.979H16.1824L17.061 15.3755L11.6139 17.6221L8.83763 18.0369L4.05823 14.6151L2.26611 11.9191Z" fill="#ED1B31"/>
<path d="M15.0911 12.3689L15.0254 19.633L17.0939 20.9751L23.8764 12.3689H15.0911Z" fill="#B71F25"/>
<path d="M8.8127 15.7559L4.87808 22.5994L3.67236 26.8852L15.6919 19.3865L8.8127 15.7559Z" fill="#D61F2B"/>
<path d="M2.61612 12.1619L8.83625 15.7564L4.97064 22.6345L2.61612 22.116L-0.265625 16.4131L2.61612 12.1619Z" fill="#AA1D22"/>
<path d="M8.90705 8.77399L4.79561 1.72314L3.84616 2.207L1.91357 13.1981L8.90705 8.77399Z" fill="#CE1E2A"/>
<path d="M14.9876 11.5739V4.73047L9.3999 7.28809L9.64621 10.3297L14.9876 11.5739Z" fill="#CD1F29"/>
<path d="M8.80288 8.98148L15.5889 4.9882L15.6204 4.34987L4.69092 1.72314L8.80288 8.98148Z" fill="#9D1C20"/>
<path d="M14.6709 10.6409L14.9829 5.32845L18.2551 4.21216L22.6129 9.36206L14.6709 10.6409Z" fill="#E11D2F"/>
<path d="M14.5649 10.5368L22.5425 9.08521L24.5457 13.1982L15.1275 12.8871L14.5649 10.5368Z" fill="#E71C32"/>
<path d="M15.0853 16.0669L11.8833 17.4494L15.0853 19.0841V16.0669Z" fill="#E81C32"/>
<path d="M8.01123 15.4097V9.22433C8.01123 8.26321 9.04527 7.64257 9.91438 8.0821L15.729 11.0227C16.6522 11.4897 16.6791 12.7782 15.7762 13.2821L9.96163 16.5268C9.09104 17.0126 8.01123 16.3942 8.01123 15.4097Z" fill="white"/>
</g>
</svg>
