<svg width="24" height="24" viewBox="0 0 24 24" fill="none" xmlns="http://www.w3.org/2000/svg">
<g clip-path="url(#clip0_19_12884)">
<path fill-rule="evenodd" clip-rule="evenodd" d="M14.425 8.66435C14.3887 8.64519 14.3508 8.62725 14.3125 8.61053L14.6566 7.69549C15.4012 5.84399 16.4682 3.59425 17.6937 2.21523C18.2772 1.57576 19.0126 1.0877 19.8339 0.79429C20.081 0.754567 20.3318 0.734682 20.5826 0.734831H23.5783C23.6534 0.731107 23.7275 0.750279 23.7908 0.789714C23.826 0.818616 23.8581 0.850783 23.8871 0.885767C23.9011 0.905501 23.913 0.926424 23.9229 0.948276C23.925 0.953362 23.928 0.957936 23.9317 0.961639C23.9359 0.965343 23.941 0.968076 23.9462 0.969621C24.0498 1.1602 24.0156 1.38737 23.7908 1.64045L15.7412 10.6875V10.6586C15.7319 10.3774 15.6696 10.1004 15.5583 9.84142C15.4241 9.53208 15.2209 9.25606 14.9644 9.0333C14.8022 8.88677 14.6208 8.76268 14.425 8.66435ZM16.5755 5.11505C16.6672 4.76053 16.7864 4.41342 16.9325 4.07679C17.2242 3.41078 17.6196 2.79353 18.1046 2.24725C17.7802 2.87952 17.5019 3.53372 17.2719 4.20486C17.1864 4.46556 17.117 4.73085 17.0548 4.99919L18.4285 3.50658L16.9387 5.57244C16.8983 5.79402 16.8641 6.01663 16.8361 6.24023L18.0953 4.85892L18.4503 4.45947L18.1591 4.86044L16.7817 6.74641L16.7708 6.73726L16.7138 7.30134C16.7138 7.32275 16.7102 7.34412 16.7065 7.36512C16.7045 7.37857 16.7024 7.39196 16.7014 7.40504L18.5746 5.3102L16.6345 7.9173C16.6144 8.06975 16.591 8.22221 16.5615 8.37467L16.5522 8.42463C16.5399 8.49185 16.5275 8.55905 16.5138 8.62623L18.5886 6.27984L17.8129 7.30594L16.3428 9.26507C16.221 9.66417 16.0505 10.0471 15.8344 10.4055C15.9412 10.0256 16.0246 9.63968 16.0842 9.24977L16.0936 9.19033C16.1003 9.15089 16.107 9.11089 16.1122 9.07143C16.1475 8.82442 16.177 8.57593 16.1972 8.32744C16.2044 8.22692 16.2117 8.12639 16.2195 8.0256C16.2381 7.77332 16.2568 7.51947 16.2703 7.2602C16.2889 6.89733 16.3262 6.54515 16.3693 6.19296C16.3863 6.07742 16.4049 5.96037 16.4236 5.84332L16.4236 5.8423C16.4672 5.59683 16.5154 5.35442 16.5755 5.11505Z" fill="#C06AE8"/>
<path fill-rule="evenodd" clip-rule="evenodd" d="M8.81973 11.2671L5.98687 5.59862C5.94785 5.48234 5.92834 5.4048 5.92834 5.36607C5.92834 5.17231 5.99624 4.9979 6.13281 4.84288C6.28811 4.66853 6.47307 4.58132 6.68689 4.58132H10.3072C10.6771 4.58132 10.9401 4.75567 11.0954 5.10451L12.9262 8.605C14.4761 8.93919 15.6374 10.3123 15.6374 11.9554C15.6374 13.8486 14.096 15.3834 12.1942 15.3834C10.2923 15.3834 8.75028 13.8486 8.75028 11.9554C8.75028 11.7195 8.77447 11.4893 8.81973 11.2671ZM13.5069 11.9554C13.5069 12.6772 12.9192 13.2625 12.1942 13.2625C11.4693 13.2625 10.8808 12.6772 10.8808 11.9554C10.8808 11.2335 11.4693 10.6482 12.1942 10.6482C12.9192 10.6482 13.5069 11.2335 13.5069 11.9554Z" fill="#C06AE8"/>
<path fill-rule="evenodd" clip-rule="evenodd" d="M9.76463 15.1053C9.80018 15.1253 9.83682 15.1439 9.875 15.1613L9.53729 16.1135C8.80647 18.0401 7.75932 20.3812 6.55655 21.8162C5.9839 22.4815 5.26223 22.9895 4.45615 23.2948C4.21305 23.3361 3.96741 23.3567 3.72127 23.3567H0.780695C0.707461 23.3605 0.634736 23.3405 0.572182 23.2995C0.538107 23.2695 0.506578 23.236 0.478097 23.1996C0.464366 23.179 0.452666 23.1572 0.443003 23.1345C0.440969 23.1292 0.437921 23.1245 0.434361 23.1206C0.430293 23.1168 0.425206 23.1139 0.42012 23.1123C0.318405 22.914 0.351971 22.6776 0.572182 22.4143L8.47284 13V13.0302C8.482 13.3226 8.54303 13.6109 8.65238 13.8805C8.78409 14.2024 8.98345 14.4896 9.23522 14.7213C9.3939 14.8739 9.57239 15.003 9.76463 15.1053ZM7.65404 18.7986C7.56403 19.1676 7.44655 19.5288 7.30364 19.879C7.01731 20.5721 6.62927 21.2144 6.15325 21.7828C6.47161 21.1249 6.74472 20.4442 6.97052 19.7458C7.05444 19.4745 7.12259 19.1985 7.18362 18.9192L5.8354 20.4724L7.29753 18.3227C7.3372 18.0921 7.37077 17.8605 7.39823 17.6278L6.16241 19.0652L5.81403 19.4809L6.09985 19.0636L7.45163 17.1011L7.46231 17.1106L7.51825 16.5237C7.51825 16.5039 7.52105 16.4842 7.52382 16.4648L7.52487 16.4573C7.52741 16.4433 7.52944 16.4293 7.53046 16.4157L5.69198 18.5956L7.59606 15.8826C7.6159 15.7241 7.63879 15.5654 7.66778 15.4067C7.68252 15.3195 7.69778 15.2322 7.71457 15.145L5.67825 17.5865L6.43958 16.5188L7.88189 14.4802C8.0014 14.065 8.16923 13.6664 8.38131 13.2936C8.27603 13.6888 8.19466 14.0904 8.13617 14.4961L8.12702 14.5579L8.12684 14.5591C8.12029 14.5999 8.11374 14.6408 8.1087 14.6817C8.07412 14.9387 8.04514 15.1974 8.0253 15.4559C8.01818 15.5605 8.01106 15.6651 8.00344 15.77C7.98513 16.0325 7.96682 16.2966 7.9536 16.5665C7.93529 16.9441 7.89867 17.3105 7.85646 17.677C7.8397 17.7973 7.82142 17.9191 7.80313 18.041C7.76042 18.2965 7.71304 18.5496 7.65404 18.7986Z" fill="#C06AE8"/>
<path d="M15.715 14.1036C14.9924 15.2786 13.6907 16.0626 12.2056 16.0626C11.8591 16.0626 11.5234 16.0202 11.2019 15.9399L12.8954 19.1772C13.0507 19.526 13.3137 19.7003 13.6836 19.7003H17.304C17.5177 19.7003 17.7027 19.6131 17.8588 19.4388C17.9946 19.2837 18.0625 19.1094 18.0625 18.9156C18.0625 18.8768 18.043 18.7994 18.0047 18.683L15.715 14.1036Z" fill="#C06AE8"/>
</g>
<defs>
<clipPath id="clip0_19_12884">
<rect width="24" height="24" fill="white"/>
</clipPath>
</defs>
</svg>
