<svg width="24" height="24" viewBox="0 0 24 24" fill="none" xmlns="http://www.w3.org/2000/svg">
<path d="M13.0732 7.33421C17.8562 5.90204 21.5496 9.45453 21.8451 14.9228C22.5468 10.0683 20.7555 6.32982 18.6318 4.54427C17.6346 4.45128 16.4342 4.41407 15.437 4.30249C14.9015 4.95346 13.6272 6.7018 13.0732 7.33421Z" fill="#B21A1A"/>
<path d="M21.3094 8.63635C19.1303 4.26544 15.1599 6.237 13.1101 7.57615C8.69647 10.4963 6.38808 4.07947 11.6143 2.42411C14.6983 1.43833 20.1829 4.20964 21.3094 8.63635Z" fill="#E32F2F"/>
<path d="M15.0677 14.8484C13.9966 19.7029 9.08439 21.1908 4.13525 18.8101C8.06874 21.786 12.2238 22.0278 14.8092 21.042C15.3816 20.2236 15.9911 19.2007 16.5635 18.3637C16.2865 17.6011 15.3632 15.6296 15.0677 14.8484Z" fill="#72AE43"/>
<path d="M9.93408 21.3955C14.8278 21.6187 15.031 17.192 14.8278 14.7741C14.4031 9.51042 21.162 10.6264 20.0909 15.9645C19.463 19.1264 14.3846 22.5487 9.93408 21.3955Z" fill="#8AC55C"/>
<path d="M7.36723 12.9328C3.80309 9.47327 5.13271 4.52579 9.80486 1.62427C5.18812 3.37261 2.76894 6.73913 2.2334 9.43605C2.62121 10.366 3.17522 11.4076 3.58149 12.3376C4.39403 12.505 6.55468 12.784 7.36723 12.9328Z" fill="#337EC4"/>
<path d="M4.52316 5.13965C1.73465 9.15713 5.39111 11.6681 7.57023 12.7841C12.2793 15.2206 7.75487 20.3354 3.76602 16.5969C1.40224 14.3836 1.18064 8.26436 4.52316 5.13965Z" fill="#529DE2"/>
</svg>
