<svg width="24" height="24" viewBox="0 0 24 24" fill="none" xmlns="http://www.w3.org/2000/svg">
<path d="M11.443 10.5933C12.6506 11.3668 14.4136 11.4827 15.4345 12.5104C15.7796 13.3018 16.0516 13.9258 15.531 15.0568C14.882 16.4477 13.3474 17.0292 11.8723 17.0292C10.5982 17.0292 9.32854 16.5603 7.58395 15.4476C6.33538 14.6538 4.76412 14.6841 3.78423 15.9396C3.55588 16.2292 3.53762 16.9884 3.73399 17.2C3.9121 17.3976 10.6865 21.3765 11.0564 21.5052C11.4583 21.6432 12.3946 21.6432 12.7965 21.5053C15.2006 20.6437 17.4196 19.0022 19.6544 17.7516C20.2995 17.4001 20.6668 16.9502 20.9835 16.3126C20.995 14.5321 21.6785 11.5245 19.9695 10.3082C19.5768 10.037 13.6718 7.11749 13.1283 6.9336C11.0205 6.19417 9.45917 9.34332 11.443 10.5933Z" fill="#DD0505"/>
<path d="M10.6603 2.43695C6.87866 4.50979 4.56833 6.07705 4.36615 6.22872C3.36075 6.96619 3.5988 8.33845 3.5988 9.41381C3.5988 10.6718 3.41415 12.0066 4.5086 12.8884C6.2162 14.2712 9.29326 16.285 11.5057 16.285C12.5258 16.285 13.3586 15.5331 13.5423 14.5449C13.9099 12.5965 12.0516 11.9469 10.6603 11.3755C9.71732 10.9883 7.8367 10.529 7.97684 9.1932C8.15843 7.36363 9.69502 6.3627 11.4184 6.09543C12.8245 5.87942 14.4924 6.38958 16.3304 7.59375C17.4736 8.34624 18.8912 8.43056 19.7307 7.16173C20.0568 6.67454 20.032 6.09287 19.757 5.84428C19.5916 5.68801 13.3438 2.23497 13.0451 2.11547C12.353 1.83307 11.2995 2.08395 10.6603 2.43695Z" fill="#DD0505"/>
</svg>
