<svg width="24" height="24" viewBox="0 0 24 24" fill="none" xmlns="http://www.w3.org/2000/svg">
<g clip-path="url(#clip0_19_12720)">
<path fill-rule="evenodd" clip-rule="evenodd" d="M7.65736 1.05393C7.54077 0.281207 10.3893 -0.413191 10.4873 0.327929C10.5579 0.861814 11.6827 5.77287 12.2825 4.49523C12.8985 3.19047 13.3064 1.7973 13.4915 0.366329C13.5977 -0.453601 16.4452 0.287205 16.3358 1.04253C16.2547 1.60267 15.091 4.99936 15.7793 4.71303C16.965 4.22062 17.9951 3.47327 18.9059 2.57613C19.5302 1.95705 21.5651 3.99068 21.0635 4.51623C19.3586 6.30003 17.3009 7.47123 14.9069 8.05893C13.8971 8.30723 16.3634 10.9104 17.1905 10.1367C18.7463 8.683 20.5829 7.65269 22.5674 6.91713C23.2607 6.6608 24.189 9.4254 23.4611 9.68283C22.2735 10.0983 21.1572 10.7031 20.1473 11.4513C19.2341 12.1281 22.9488 12.5416 23.3648 12.5733C24.5635 12.6657 23.8794 15.5225 23.1404 15.468C21.1179 15.3205 13.2714 10.5557 12.0152 10.5182C10.7589 10.4807 4.95616 15.1552 0.94366 15.465C0.0770163 15.5306 -0.479888 12.6514 0.45376 12.5859C4.69201 12.2905 3.90886 10.8593 0.55696 9.69273C-0.336823 9.38285 0.741781 6.68221 1.46056 6.93003C3.46287 7.6242 5.26573 8.74156 6.83356 10.1586C7.55107 10.8068 10.174 8.30838 9.21556 8.08533C6.73132 7.51357 4.6286 6.22686 2.83876 4.43703C2.37301 3.96729 4.56775 2.04034 4.95346 2.43663C5.92249 3.43518 7.04885 4.25201 8.34856 4.76913C9.21556 5.28674 7.73919 1.60757 7.65736 1.05393Z" fill="#E6852B"/>
<path fill-rule="evenodd" clip-rule="evenodd" d="M10.5449 23.2716C10.5413 22.1991 10.5272 21.3534 10.5449 20.2809C10.5738 18.5243 7.75575 16.1695 6.75646 14.8638C6.26926 14.2271 8.85938 12.8257 9.33556 13.4472C9.77691 14.023 11.6638 17.3499 12.3044 16.5138C13.1024 15.4719 13.9004 14.43 14.6996 13.389C15.1423 12.8125 17.6456 14.3164 17.3132 14.7519C16.3213 16.0502 13.4237 18.5005 13.4411 20.2266C13.4522 21.2991 13.451 22.1445 13.4495 23.2173C13.4482 24.0467 10.5476 24.0083 10.5449 23.2716Z" fill="#E6852B"/>
</g>
<defs>
<clipPath id="clip0_19_12720">
<rect width="24" height="24" fill="white"/>
</clipPath>
</defs>
</svg>
