<svg width="24" height="24" viewBox="0 0 24 24" fill="none" xmlns="http://www.w3.org/2000/svg">
<path d="M22 8.5037C21.9621 7.82133 21.7271 7.1313 21.2646 6.61761C20.7566 6.04258 20.0288 5.72823 19.2858 5.63623H7.89083C6.2229 5.82791 4.71418 6.97029 3.98635 8.49603V8.5037L2 15.5727C2.03791 16.2704 2.29568 16.9451 2.77331 17.4511C3.25853 17.9802 3.97119 18.2868 4.68385 18.3635H15.9424C17.6482 18.2255 19.21 17.0908 19.9985 15.565L22 8.5037Z" fill="white"/>
<path d="M7.81124 17.4292C6.91625 17.445 6.01385 17.4371 5.12625 17.4371C4.53452 17.445 3.92059 17.1698 3.58774 16.6194C3.2475 16.0768 3.2401 15.3691 3.42502 14.7637C3.92799 13.0495 4.43836 11.3433 4.94133 9.62127C5.36294 7.93859 6.93844 6.6176 8.59529 6.7041C10.0894 6.71196 11.5762 6.7041 13.0703 6.71196C12.8188 7.60048 12.5525 8.48114 12.2862 9.36966C10.7181 9.36966 9.13525 9.37752 7.56715 9.36966C7.0272 11.1703 6.49464 12.9788 5.96208 14.7794C6.7979 14.7794 7.61893 14.7794 8.44736 14.7794C8.5805 14.3155 8.71364 13.8516 8.85418 13.3955C8.43996 13.3955 8.01095 13.3955 7.59674 13.3955C7.84823 12.5149 8.11451 11.6421 8.36599 10.7614C9.57905 10.7614 10.7847 10.7614 11.9978 10.7614C11.5909 12.1217 11.1989 13.4899 10.7847 14.858C10.3557 16.2026 9.17963 17.3428 7.81124 17.4292ZM19.0616 14.4806C18.6178 16.1948 17.0349 17.5079 15.3559 17.4528C14.6088 17.445 13.8543 17.4686 13.1073 17.4371C12.5377 17.4057 11.9682 17.1304 11.6501 16.6194C11.2951 16.0611 11.2655 15.3455 11.4504 14.7165C11.9682 12.9631 12.4859 11.2017 13.0037 9.44829C13.3735 8.0644 14.5126 6.96358 15.8218 6.62547C16.6133 6.47607 17.4195 6.58615 18.2184 6.56256C18.8323 6.54684 19.5202 6.53111 20.0306 6.9793C20.6667 7.4904 20.822 8.44182 20.6001 9.22026C20.0971 10.9658 19.572 12.7193 19.0616 14.4806Z" fill="#FF3333"/>
<path d="M15.7705 9.27624C15.2458 11.0985 14.7061 12.9209 14.1738 14.7273C14.9459 14.7273 15.7181 14.7273 16.4902 14.7273C17.0299 12.9129 17.5621 11.0985 18.0869 9.27624C17.3223 9.27624 16.5426 9.26828 15.7705 9.27624Z" fill="white"/>
</svg>
