<svg width="24" height="24" viewBox="0 0 24 24" fill="none" xmlns="http://www.w3.org/2000/svg">
<path d="M13.6035 17.1707L13.6357 16.8817L13.9247 16.962C13.9568 16.962 16.9116 17.7488 18.3889 16.432C19.8181 15.1634 20.332 12.1926 18.5014 9.20575C16.767 6.34735 12.5758 3.39261 11.7568 2.83057C10.9378 3.39261 6.74661 6.34735 5.0123 9.20575C3.18165 12.1926 3.71157 15.1634 5.12471 16.432C6.60208 17.7488 9.55683 16.962 9.58894 16.962L9.878 16.8817L9.91011 17.1707C9.91011 17.2349 10.0546 18.9211 8.81814 20.286C7.7904 21.4101 6.15245 21.9722 3.96851 21.9722V22.9839C6.45756 22.9839 8.35245 22.3094 9.57289 20.9605C11.0984 19.2904 10.9539 17.2992 10.9378 17.0744L10.7933 15.597L9.36413 15.9824C8.72179 16.143 6.71449 16.4641 5.83128 15.6773C4.70719 14.6817 4.35391 12.2408 5.89551 9.71962C7.27654 7.45538 10.3919 5.06268 11.7889 4.051C13.186 5.04663 16.2853 7.43933 17.6824 9.71962C19.224 12.2408 18.8707 14.6817 17.7466 15.6773C16.8634 16.4641 14.8561 16.159 14.2138 15.9824L12.7685 15.597L12.64 17.0904C12.624 17.3152 12.4795 19.3065 14.005 20.9766C15.2254 22.3094 17.1203 22.9999 19.6094 22.9999V21.9882C17.4094 21.9882 15.7875 21.4101 14.7597 20.3021C13.459 18.9211 13.6035 17.251 13.6035 17.1707Z" fill="#FF3333"/>
<path d="M19.3844 17.5562C21.3114 15.838 22.0662 12.1445 19.7859 8.41898C17.6983 4.98248 12.672 1.61022 12.4472 1.46569L11.7567 1L11.0662 1.46569C10.8574 1.61022 5.8151 4.96642 3.72751 8.40292C1.44721 12.1285 2.20196 15.8219 4.12897 17.5401C5.26911 18.5679 6.85889 18.7445 8.09539 18.6803C7.99904 18.8891 7.85451 19.0818 7.67787 19.2745C6.95524 20.0613 5.70269 20.4467 3.96838 20.4467V21.4584C6.0078 21.4584 7.51729 20.9445 8.44867 19.9328C9.25159 19.0496 9.41218 17.9898 9.42824 17.492C8.57714 17.6686 6.2005 18.0219 4.81948 16.7693C3.19758 15.3241 2.61948 12.1606 4.61072 8.90073C6.5859 5.65693 11.4516 2.41314 11.6443 2.28467L11.7888 2.18832L11.9333 2.28467C12.1421 2.4292 16.9917 5.65693 18.9669 8.90073C20.9582 12.1606 20.364 15.3241 18.7582 16.7693C17.3771 18.0058 15.0005 17.6686 14.1494 17.492C14.1655 17.9898 14.326 19.0496 15.129 19.9328C16.0604 20.9445 17.5538 21.4584 19.6093 21.4584V20.4467C17.875 20.4467 16.6224 20.0453 15.8998 19.2745C15.7231 19.0818 15.5786 18.873 15.4823 18.6803C16.6545 18.7606 18.2443 18.5839 19.3844 17.5562Z" fill="#FF3333"/>
</svg>
