<svg width="24" height="24" viewBox="0 0 24 24" fill="none" xmlns="http://www.w3.org/2000/svg">
<path d="M23.9882 19.1678H0V12.0276H23.9882V19.1678ZM20.4814 12.5253C20.2959 12.5254 20.1108 12.5441 19.9284 12.5811C19.7487 12.6176 19.5723 12.6718 19.4012 12.7429C19.2322 12.8132 19.0694 12.9002 18.9145 13.0028C18.7613 13.1044 18.6168 13.2214 18.4831 13.3524C18.3503 13.4827 18.2292 13.6271 18.1219 13.7835C18.0142 13.9405 17.9216 14.1095 17.8456 14.2878C17.6868 14.6617 17.6052 15.0701 17.6067 15.4831C17.6036 15.9211 17.6765 16.3557 17.8213 16.7633C17.8896 16.9525 17.9751 17.1337 18.0764 17.3039C18.1758 17.4706 18.2904 17.6255 18.4184 17.7662C18.5466 17.9068 18.6874 18.0325 18.8387 18.1413C18.9931 18.2522 19.1572 18.3457 19.3284 18.4204C19.6959 18.5781 20.0872 18.6576 20.4814 18.6544C20.8756 18.6576 21.2668 18.5782 21.6344 18.4204C21.8057 18.3457 21.9697 18.2522 22.1241 18.1413C22.2754 18.0325 22.4163 17.9068 22.5444 17.7662C22.6724 17.6255 22.7871 17.4706 22.8864 17.3039C22.9878 17.1337 23.0732 16.9525 23.1416 16.7633C23.2863 16.3557 23.3592 15.9211 23.3561 15.4831C23.3577 15.0699 23.2761 14.6617 23.1173 14.2876C23.0413 14.1095 22.9487 13.9405 22.841 13.7835C22.7336 13.6271 22.6126 13.4827 22.4796 13.3524C22.346 13.2214 22.2016 13.1044 22.0483 13.0029C21.8934 12.9003 21.7306 12.8134 21.5617 12.7429C21.3907 12.6718 21.2141 12.6176 21.0344 12.581C20.852 12.544 20.6669 12.5253 20.4814 12.5253ZM6.65718 12.5253C6.47169 12.5254 6.2866 12.5441 6.10417 12.5811C5.92443 12.6176 5.74799 12.6719 5.57694 12.7431C5.408 12.8134 5.24512 12.9003 5.09023 13.0029C4.93698 13.1044 4.79257 13.2214 4.65886 13.3524C4.52601 13.4827 4.40502 13.6271 4.29763 13.7835C4.18995 13.9405 4.09733 14.1095 4.02131 14.2878C3.86255 14.6618 3.78097 15.0701 3.7825 15.4832C3.77943 15.9211 3.85226 16.3557 3.99707 16.7633C4.06542 16.9526 4.1509 17.1337 4.2522 17.3039C4.3516 17.4706 4.46621 17.6255 4.59423 17.7663C4.72237 17.9068 4.86319 18.0326 5.01448 18.1414C5.16889 18.2523 5.33295 18.3457 5.50421 18.4204C5.87174 18.5782 6.26297 18.6576 6.6572 18.6544C7.05144 18.6576 7.44266 18.5782 7.81019 18.4204C7.98145 18.3458 8.14551 18.2523 8.29992 18.1414C8.45121 18.0326 8.59203 17.9069 8.72017 17.7663C8.8482 17.6255 8.96283 17.4707 9.06223 17.304C9.16353 17.1338 9.249 16.9526 9.31736 16.7634C9.46217 16.3557 9.535 15.9211 9.53193 15.4832C9.53346 15.0701 9.45189 14.6618 9.29313 14.2878C9.21711 14.1096 9.12451 13.9406 9.01682 13.7835C8.90943 13.6271 8.78844 13.4827 8.65558 13.3525C8.52188 13.2214 8.37747 13.1044 8.22421 13.0029C8.06933 12.9003 7.90645 12.8134 7.73751 12.7431C7.56645 12.6719 7.39 12.6177 7.21025 12.5811C7.02781 12.5441 6.84268 12.5254 6.65718 12.5253ZM13.7945 12.7159V13.9814H14.9113V18.4636H16.2624V13.9813H17.3792V12.7158L13.7945 12.7159ZM9.75934 12.7159V13.9814H10.8761V18.4636H12.2273V13.9813H13.3441V12.7158L9.75934 12.7159ZM0.631957 12.7159V18.4636H3.60317V17.1983H1.98312V12.7159H0.631957ZM20.4814 17.2058C20.2856 17.2065 20.0917 17.1627 19.9117 17.0773C19.8242 17.0356 19.7407 16.9845 19.6624 16.9244C19.584 16.8643 19.5111 16.7958 19.4448 16.72C19.3085 16.5635 19.2012 16.3789 19.1291 16.1769C19.0513 15.9583 19.0119 15.7256 19.0131 15.4907C19.0132 15.3922 19.0232 15.294 19.0431 15.1979C19.063 15.102 19.0918 15.0086 19.1291 14.9193C19.1668 14.829 19.2123 14.743 19.265 14.6623C19.3185 14.5807 19.3787 14.5045 19.4447 14.435C19.5119 14.3644 19.5848 14.3007 19.6623 14.2447C19.7412 14.1878 19.8247 14.1391 19.9117 14.0993C20.0922 14.0163 20.2859 13.9736 20.4814 13.9738C20.6769 13.9736 20.8705 14.0163 21.0511 14.0993C21.1381 14.1391 21.2215 14.1878 21.3004 14.2447C21.3781 14.3007 21.4508 14.3644 21.518 14.435C21.5842 14.5045 21.6443 14.5807 21.6978 14.6623C21.7505 14.7429 21.7961 14.829 21.8337 14.9193C21.871 15.0086 21.8999 15.102 21.9197 15.1979C21.9396 15.294 21.9497 15.3922 21.9498 15.4907C21.9509 15.7256 21.9115 15.9583 21.8337 16.1769C21.7616 16.3789 21.6543 16.5635 21.518 16.72C21.4517 16.7958 21.3789 16.8643 21.3004 16.9244C21.2221 16.9845 21.1386 17.0356 21.0511 17.0773C20.8711 17.1627 20.6772 17.2065 20.4814 17.2058ZM6.65718 17.2058C6.46133 17.2065 6.26745 17.1627 6.08748 17.0773C5.99998 17.0356 5.91646 16.9845 5.83813 16.9244C5.75971 16.8643 5.68682 16.7958 5.62054 16.72C5.48424 16.5635 5.37698 16.3789 5.30486 16.1769C5.22708 15.9583 5.18769 15.7256 5.18883 15.4907C5.18895 15.3922 5.19903 15.294 5.21886 15.1979C5.23873 15.102 5.26756 15.0086 5.30486 14.9193C5.34257 14.829 5.38809 14.7429 5.44079 14.6623C5.49425 14.5807 5.55444 14.5045 5.62058 14.435C5.68774 14.3644 5.76057 14.3007 5.83818 14.2447C5.91706 14.1878 6.00053 14.1391 6.08753 14.0993C6.26808 14.0163 6.4617 13.9736 6.65722 13.9738C6.85275 13.9736 7.04638 14.0163 7.22694 14.0993C7.31394 14.1391 7.39741 14.1878 7.47629 14.2447C7.5539 14.3007 7.62673 14.3644 7.69388 14.435C7.76003 14.5045 7.82022 14.5807 7.87368 14.6623C7.92639 14.7429 7.9719 14.829 8.00961 14.9193C8.04692 15.0086 8.07573 15.102 8.09561 15.1979C8.11544 15.294 8.12552 15.3922 8.12563 15.4907C8.12678 15.7255 8.0874 15.9583 8.00961 16.1767C7.93748 16.3789 7.83022 16.5634 7.69391 16.7199C7.62762 16.7958 7.55474 16.8643 7.47631 16.9244C7.398 16.9845 7.31447 17.0356 7.22696 17.0772C7.04698 17.1627 6.85305 17.2065 6.65718 17.2058Z" fill="#33C2E1"/>
<path d="M3.28991 6.56989C3.02557 6.32629 2.68773 6.16386 2.33525 6.16386C2.07091 6.16386 1.71838 6.33441 1.71838 6.67546C1.71838 7.03276 2.10761 7.17089 2.35727 7.26006L2.72445 7.38186C3.49552 7.63362 4.09035 8.064 4.09035 9.0547C4.09035 9.66372 3.95819 10.289 3.51757 10.7031C3.08428 11.1092 2.50416 11.2797 1.94602 11.2797C1.24841 11.2797 0.565454 11.0199 0 10.5813L0.616843 9.2983C0.976676 9.64757 1.40261 9.9317 1.89464 9.9317C2.23243 9.9317 2.59226 9.74492 2.59226 9.31455C2.59226 8.86792 2.0268 8.71362 1.71838 8.61617C0.815117 8.33196 0.220294 8.07212 0.220294 6.88652C0.220294 5.64409 1.02074 4.83203 2.12962 4.83203C2.68773 4.83203 3.37066 5.02693 3.86271 5.33551L3.28991 6.56989Z" fill="#33C2E1"/>
<path d="M9.57667 4.99451V8.43758C9.57667 9.22531 9.54728 10.0048 8.99647 10.5976C8.53393 11.101 7.80687 11.2798 7.16072 11.2798C6.51458 11.2798 5.78752 11.1011 5.32483 10.5976C4.77407 10.0048 4.74463 9.22531 4.74463 8.43758V4.99451H6.18403V8.21832C6.18403 9.01416 6.23541 9.88296 7.16072 9.88296C8.08603 9.88296 8.13743 9.01408 8.13743 8.21832V4.99451H9.57667Z" fill="#33C2E1"/>
<path d="M10.4884 4.99451H12.6914C13.8811 4.99451 14.7035 5.60355 14.7035 7.00842C14.7035 8.45386 13.9986 9.08726 12.7428 9.08726H11.9277V11.1174H10.4884V4.99451ZM11.9277 7.8042H12.17C12.6914 7.8042 13.2054 7.8042 13.2054 7.0571C13.2054 6.28567 12.7281 6.27755 12.17 6.27755H11.9277V7.8042Z" fill="#33C2E1"/>
<path d="M16.7828 6.34252V7.36558H18.4057V8.71358H16.7828V9.76924H18.4938V11.1172H15.3435V4.99451H18.4938V6.34252H16.7828Z" fill="#33C2E1"/>
<path d="M23.9874 11.1173H22.1956L20.8371 8.7624H20.8224V11.1173H19.3831V4.99451H21.5346C22.6289 4.99451 23.4587 5.57107 23.4587 6.87845C23.4587 7.72298 23.0327 8.4539 22.2471 8.60813L23.9874 11.1173ZM20.8224 7.73922H20.9619C21.4319 7.73922 21.9607 7.64178 21.9607 6.9759C21.9607 6.31002 21.4319 6.21257 20.9619 6.21257H20.8224V7.73922Z" fill="#33C2E1"/>
</svg>
