<svg width="24" height="24" viewBox="0 0 24 24" fill="none" xmlns="http://www.w3.org/2000/svg">
<rect x="4" y="6" width="16" height="16" rx="8" fill="white"/>
<path d="M20.3218 15.7551L20.9428 11.3919L18.3334 5.91566L16.5577 6.52376L14.2414 4.03946L10.1476 1.80896L9.25179 5.11766L8.61639 3.38066L5.47569 6.45206L3.71649 9.52466L3.63849 12.7089L2.40039 12.1197L3.24279 17.2221L5.15979 20.508L9.67929 22.0563L13.381 22.1907L19.7629 19.8579L21.5989 15.3195L20.3221 15.7551H20.3218ZM17.5609 13.3371L13.9417 13.4277L13.8112 17.4987L13.6162 19.9089L10.4635 19.8759V17.5659L10.2031 13.5279L6.41979 13.6899L6.29169 9.78236L11.8606 9.74966L17.6254 9.58736L17.7232 10.1085L17.5609 13.3371Z" fill="#FF9F00"/>
</svg>
