<svg width="24" height="24" viewBox="0 0 24 24" fill="none" xmlns="http://www.w3.org/2000/svg">
<path d="M13.1855 19H9.24776C8.27005 19 7.81698 17.8833 7.92282 17.0501L9.45826 6.38629C9.56972 5.5941 10.1269 5.0152 10.7832 5.0152H14.7085C15.6863 5.0152 16.1393 6.13196 16.0335 6.96518L14.498 17.6289C14.399 18.4211 13.8294 19 13.1855 19ZM10.7956 5.33512C10.2755 5.33512 9.82976 5.79217 9.73068 6.43197L8.19524 17.0957C8.10788 17.7674 8.47645 18.6496 9.26013 18.6496H13.1855C13.7055 18.6496 14.1513 18.1926 14.2504 17.5528L15.7859 6.88901C15.8732 6.21736 15.5046 5.33512 14.7209 5.33512H10.7956Z" fill="#FAFF13"/>
<path d="M13.9656 6.40145L9.47065 12.5712H11.4271L10.0403 17.2633L14.5104 11.0478H12.5168L13.9656 6.40145Z" fill="#FAFF13"/>
<path d="M22.6583 5H18.7329C18.0767 5 17.5194 5.57889 17.408 6.37104L15.8725 17.0348C15.7461 17.8643 16.2334 18.9848 17.1975 18.9848H21.1228C21.7791 18.9848 22.3363 18.4059 22.4478 17.6137L23.9832 6.94994C24.0919 6.12129 23.6268 5 22.6583 5ZM23.7108 6.88899L22.1754 17.5528C22.0886 18.1926 21.6429 18.6496 21.1104 18.6496H19.575L21.9401 15.3591H19.9464L21.3952 10.7127L16.9003 16.8977H18.8568L18.3367 18.6496H17.1851C16.4014 18.6496 16.0328 17.7674 16.1202 17.0958L17.6557 6.43199C17.7423 5.79215 18.1881 5.33515 18.7206 5.33515H22.6459C23.4254 5.33515 23.798 6.21889 23.7108 6.88899Z" fill="#FAFF13"/>
<path d="M6.82073 5.0152H2.88302C2.22674 5.0152 1.66952 5.5941 1.55807 6.38629L0.022613 17.0501C-0.103812 17.8795 0.38353 19 1.34757 19H5.2729C5.92917 19 6.48639 18.4211 6.59785 17.6289L8.13332 6.96518C8.26371 6.13637 7.78529 5.0152 6.82073 5.0152ZM7.87328 6.90423L6.3378 17.568C6.23875 18.2078 5.79296 18.6801 5.2729 18.6801H1.34757C0.563878 18.6801 0.195303 17.7978 0.28265 17.1262L1.81811 6.46246C1.90479 5.82262 2.35057 5.36562 2.88302 5.36562H4.33181L2.21436 8.27528H4.17084L2.78396 12.9521L7.25414 6.73666H5.26053L5.69391 5.35035H6.82073C7.60467 5.35035 7.96037 6.23419 7.87328 6.90423Z" fill="#FAFF13"/>
</svg>
