<svg width="24" height="24" viewBox="0 0 24 24" fill="none" xmlns="http://www.w3.org/2000/svg">
<path d="M15.7986 20.1947H8.08235C9.49103 20.5272 10.8457 21.4676 11.3469 21.8962V22.5492C11.7426 23.3406 12.356 22.9251 12.5934 22.5492V21.8962C13.0999 21.0257 14.9412 20.3992 15.7986 20.1947Z" fill="#EF354B"/>
<path d="M21.8331 15.1691H1.96871C0.654981 15.9921 1.5796 17.1608 2.20612 17.6423C2.20612 17.9272 4.13189 18.7635 5.21347 19.146H18.6674C19.0697 19.1658 20.2661 18.8927 21.8331 17.6423C23.4001 16.3919 22.486 15.4725 21.8331 15.1691Z" fill="#EF354B"/>
<path d="M6.06429 14.2195H17.8365C16.4383 13.8303 13.5945 12.3952 13.4046 9.76774V8.54114C13.431 8.36967 13.3413 7.96341 12.7715 7.71016C12.6791 7.59148 12.6211 7.29474 13.1276 7.05732L12.7715 1.57682C12.4483 1.14154 11.6793 0.532141 11.1887 1.57682L10.7138 7.05732C10.9908 7.19576 11.4736 7.52015 11.1887 7.71016C10.8325 7.94768 10.7336 7.71007 10.5753 8.54114V9.76774C10.4658 10.9161 9.41024 13.414 6.06429 14.2195Z" fill="#EF354B"/>
</svg>
