<svg width="24" height="24" viewBox="0 0 24 24" fill="none" xmlns="http://www.w3.org/2000/svg">
<path d="M22.2941 10.3773H22.0299C21.7027 10.3773 21.4187 10.1486 21.3438 9.82921C21.1033 8.78421 20.6892 7.80229 20.1371 6.91899C19.9636 6.64295 20.007 6.2841 20.2357 6.05539L20.425 5.8661C20.701 5.59007 20.701 5.14447 20.425 4.87238L19.1276 3.57501C18.8516 3.29898 18.406 3.29898 18.1339 3.57501L17.9446 3.76429C17.7159 3.99301 17.3571 4.03639 17.081 3.86288C16.1977 3.31081 15.2158 2.89676 14.1708 2.65621C13.8514 2.58129 13.6227 2.30131 13.6227 1.97007V1.70586C13.6227 1.31547 13.3072 1 12.9169 1H11.0832C10.6928 1 10.3773 1.31547 10.3773 1.70586V1.97007C10.3773 2.29737 10.1486 2.58129 9.82921 2.65621C8.78421 2.89676 7.80229 3.31081 6.91899 3.86288C6.64295 4.03639 6.2841 3.99301 6.05539 3.76429L5.8661 3.57501C5.59007 3.29898 5.14447 3.29898 4.87238 3.57501L3.57501 4.87238C3.29898 5.14841 3.29898 5.59401 3.57501 5.8661L3.76429 6.05539C3.99301 6.2841 4.03639 6.64295 3.86288 6.91899C3.31081 7.80229 2.89676 8.78421 2.65621 9.82921C2.58129 10.1486 2.30131 10.3773 1.97007 10.3773H1.70586C1.31547 10.3773 1 10.6928 1 11.0832V12.9169C1 13.3072 1.31547 13.6227 1.70586 13.6227H1.97007C2.29737 13.6227 2.58129 13.8514 2.65621 14.1708C2.89676 15.2158 3.31081 16.1977 3.86288 17.081C4.03639 17.3571 3.99301 17.7159 3.76429 17.9446L3.57501 18.1339C3.29898 18.4099 3.29898 18.8555 3.57501 19.1276L4.87238 20.425C5.14841 20.701 5.59401 20.701 5.8661 20.425L6.05539 20.2357C6.2841 20.007 6.64295 19.9636 6.91899 20.1371C7.80229 20.6892 8.78421 21.1033 9.82921 21.3438C10.1486 21.4187 10.3773 21.6987 10.3773 22.0299V22.2941C10.3773 22.6845 10.6928 23 11.0832 23H12.9169C13.3072 23 13.6227 22.6845 13.6227 22.2941V22.0299C13.6227 21.7027 13.8514 21.4187 14.1708 21.3438C15.2158 21.1033 16.1977 20.6892 17.081 20.1371C17.3571 19.9636 17.7159 20.007 17.9446 20.2357L18.1339 20.425C18.4099 20.701 18.8555 20.701 19.1276 20.425L20.425 19.1276C20.701 18.8516 20.701 18.406 20.425 18.1339L20.2357 17.9446C20.007 17.7159 19.9636 17.3571 20.1371 17.081C20.6892 16.1977 21.1033 15.2158 21.3438 14.1708C21.4187 13.8514 21.6987 13.6227 22.0299 13.6227H22.2941C22.6845 13.6227 23 13.3072 23 12.9169V11.0832C23 10.6928 22.6845 10.3773 22.2941 10.3773ZM12.002 18.8634C8.20847 18.8634 5.13658 15.7876 5.13658 11.998C5.13658 8.20847 8.21242 5.13264 12.002 5.13264C15.7915 5.13264 18.8674 8.20847 18.8674 11.998C18.8674 15.7876 15.7915 18.8634 12.002 18.8634Z" fill="#3D1D55"/>
<path d="M12.002 14.6164C13.4481 14.6164 14.6204 13.4441 14.6204 11.998C14.6204 10.552 13.4481 9.37963 12.002 9.37963C10.5559 9.37963 9.38359 10.552 9.38359 11.998C9.38359 13.4441 10.5559 14.6164 12.002 14.6164Z" fill="#3D1D55"/>
</svg>
