<svg width="24" height="24" viewBox="0 0 24 24" fill="none" xmlns="http://www.w3.org/2000/svg">
<path d="M15.8632 16.0239C16.0542 15.98 16.0815 15.0989 15.8975 15.044C14.8176 14.5328 14.2005 13.5785 14.2005 12.505C14.2005 9.91072 17.4952 8.9189 19.4716 10.0596C19.849 10.4352 21.94 9.24467 21.94 9.85517L22 11.4911C22 11.9636 20.92 11.6181 20.92 12.505C20.92 14.1262 19.4764 15.2536 17.946 15.3422C17.6922 15.3422 17.7141 15.8535 17.9717 15.8535C19.5248 15.9421 21.5972 16.4817 21.5972 18.384C21.5972 20.4277 19.1562 20.9145 17.5431 20.9145C15.8968 20.9145 13.4634 20.4678 13.4634 18.3755C13.5405 17.1826 14.4233 16.3902 15.8632 16.0239ZM19.2916 18.384C19.2916 17.5608 15.8975 17.5608 15.8975 18.384C15.9568 19.1898 19.2916 19.1528 19.2916 18.384ZM17.5946 11.6018C16.2918 11.5422 16.2318 13.4592 17.5946 13.3229C18.8927 13.3791 18.8665 11.6018 17.5946 11.6018Z" fill="white"/>
<path d="M4.80678 7.1796H13.0348L3.46116 10.3577C1.9425 10.8694 1.17661 16.5264 3.38402 16.5264H12.452C14.274 16.5264 14.4901 13.1182 12.5377 13.1182H4.87536L13.8319 10.1361C15.358 9.62186 16.4457 3.77148 13.9348 3.77148H4.86678C3.0539 3.77148 2.87329 7.1796 4.80678 7.1796Z" fill="#FB7D04"/>
</svg>
